<?xml version="1.0" encoding="UTF-8"?>
<!DOCTYPE svg PUBLIC "-//W3C//DTD SVG 1.1//EN" "http://www.w3.org/Graphics/SVG/1.1/DTD/svg11.dtd">
<svg xmlns="http://www.w3.org/2000/svg" version="1.1" width="444px" height="625px" style="shape-rendering:geometricPrecision; text-rendering:geometricPrecision; image-rendering:optimizeQuality; fill-rule:evenodd; clip-rule:evenodd" xmlns:xlink="http://www.w3.org/1999/xlink">
<g><path style="opacity:1" fill="#fafbfc" d="M -0.5,-0.5 C 147.5,-0.5 295.5,-0.5 443.5,-0.5C 443.5,169.5 443.5,339.5 443.5,509.5C 296.736,510.832 150.069,510.832 3.5,509.5C 1.85946,508.853 0.526127,507.853 -0.5,506.5C -0.5,337.5 -0.5,168.5 -0.5,-0.5 Z"/></g>
<g><path style="opacity:1" fill="#075693" d="M 7.5,0.5 C 9.83333,0.5 12.1667,0.5 14.5,0.5C 14.6107,1.11742 14.944,1.61742 15.5,2C 83.5,2.16667 151.5,2.33333 219.5,2.5C 287.837,2.49997 355.837,1.83331 423.5,0.5C 425.167,0.5 426.833,0.5 428.5,0.5C 428.804,1.14987 429.137,1.81654 429.5,2.5C 291.501,3.33333 153.501,3.83333 15.5,4C 151.5,4.33333 287.5,4.66667 423.5,5C 284.834,5.5 146.167,5.66667 7.5,5.5C 7.5,4.16667 7.5,2.83333 7.5,1.5C 7.5,1.16667 7.5,0.833333 7.5,0.5 Z"/></g>
<g><path style="opacity:1" fill="#05558f" d="M 14.5,0.5 C 150.833,0.5 287.167,0.5 423.5,0.5C 355.837,1.83331 287.837,2.49997 219.5,2.5C 151.5,2.33333 83.5,2.16667 15.5,2C 14.944,1.61742 14.6107,1.11742 14.5,0.5 Z"/></g>
<g><path style="opacity:1" fill="#01579e" d="M 428.5,0.5 C 431.5,0.5 434.5,0.5 437.5,0.5C 437.833,139.001 437.5,277.334 436.5,415.5C 436.494,279.21 436.494,143.043 436.5,7C 435.552,6.51722 434.552,6.35055 433.5,6.5C 433.484,142.685 433.484,279.018 433.5,415.5C 432.5,415.5 431.5,415.5 430.5,415.5C 430.34,417.199 430.506,418.866 431,420.5C 431.333,420.167 431.667,419.833 432,419.5C 432.417,420.756 433.25,421.423 434.5,421.5C 434.443,422.609 434.11,423.609 433.5,424.5C 432.833,424.5 432.167,424.5 431.5,424.5C 430.183,421.516 429.183,418.516 428.5,415.5C 428.516,279.018 428.516,142.685 428.5,6.5C 426.801,6.33982 425.134,6.50649 423.5,7C 424.5,7.33333 425.5,7.66667 426.5,8C 425.733,9.47049 425.067,10.9705 424.5,12.5C 288.167,12.5 151.833,12.5 15.5,12.5C 15.5,10.5 15.5,8.5 15.5,6.5C 13.5,6.5 11.5,6.5 9.5,6.5C 8.16667,6.5 6.83333,6.5 5.5,6.5C 5.5,4.83333 5.5,3.16667 5.5,1.5C 6.16667,1.5 6.83333,1.5 7.5,1.5C 7.5,2.83333 7.5,4.16667 7.5,5.5C 146.167,5.66667 284.834,5.5 423.5,5C 287.5,4.66667 151.5,4.33333 15.5,4C 153.501,3.83333 291.501,3.33333 429.5,2.5C 429.137,1.81654 428.804,1.14987 428.5,0.5 Z"/></g>
<g><path style="opacity:1" fill="#1b4d7f" d="M 7.5,0.5 C 7.5,0.833333 7.5,1.16667 7.5,1.5C 6.83333,1.5 6.16667,1.5 5.5,1.5C 4.53862,3.26465 4.20528,5.26465 4.5,7.5C 4.5,143.5 4.5,279.5 4.5,415.5C 4.33537,418.518 4.50204,421.518 5,424.5C 7.35426,424.892 9.85426,424.892 12.5,424.5C 13.1667,424.5 13.8333,424.5 14.5,424.5C 14.8333,425.167 15.1667,425.833 15.5,426.5C 11.5,426.5 7.5,426.5 3.5,426.5C 3.5,284.5 3.5,142.5 3.5,0.5C 4.83333,0.5 6.16667,0.5 7.5,0.5 Z"/></g>
<g><path style="opacity:1" fill="#015999" d="M 5.5,1.5 C 5.5,3.16667 5.5,4.83333 5.5,6.5C 6.83333,6.5 8.16667,6.5 9.5,6.5C 10.6648,142.764 10.8314,279.097 10,415.5C 9.32924,416.252 8.4959,416.586 7.5,416.5C 7.66667,282.833 7.5,149.166 7,15.5C 7.05334,12.3248 6.22001,9.65814 4.5,7.5C 4.20528,5.26465 4.53862,3.26465 5.5,1.5 Z"/></g>
<g><path style="opacity:1" fill="#01579c" d="M 9.5,6.5 C 11.5,6.5 13.5,6.5 15.5,6.5C 15.5,8.5 15.5,10.5 15.5,12.5C 151.833,12.5 288.167,12.5 424.5,12.5C 424.757,146.841 424.757,281.175 424.5,415.5C 287.5,415.333 150.5,415.5 13.5,416C 14.056,416.383 14.3893,416.883 14.5,417.5C 11.9608,418.907 12.2942,420.073 15.5,421C 151.736,421.832 287.903,421.666 424,420.5C 424.464,421.094 424.631,421.761 424.5,422.5C 286.829,421.835 149.496,422.502 12.5,424.5C 9.85426,424.892 7.35426,424.892 5,424.5C 4.50204,421.518 4.33537,418.518 4.5,415.5C 4.97717,417.99 6.3105,419.99 8.5,421.5C 9.68383,419.533 9.3505,417.866 7.5,416.5C 8.4959,416.586 9.32924,416.252 10,415.5C 10.8314,279.097 10.6648,142.764 9.5,6.5 Z"/></g>
<g><path style="opacity:1" fill="#015894" d="M 436.5,415.5 C 435.715,417.374 435.048,419.374 434.5,421.5C 433.25,421.423 432.417,420.756 432,419.5C 431.667,419.833 431.333,420.167 431,420.5C 430.506,418.866 430.34,417.199 430.5,415.5C 431.5,415.5 432.5,415.5 433.5,415.5C 433.484,279.018 433.484,142.685 433.5,6.5C 434.552,6.35055 435.552,6.51722 436.5,7C 436.494,143.043 436.494,279.21 436.5,415.5 Z"/></g>
<g><path style="opacity:1" fill="#0654a2" d="M 4.5,7.5 C 6.22001,9.65814 7.05334,12.3248 7,15.5C 7.5,149.166 7.66667,282.833 7.5,416.5C 9.3505,417.866 9.68383,419.533 8.5,421.5C 6.3105,419.99 4.97717,417.99 4.5,415.5C 4.5,279.5 4.5,143.5 4.5,7.5 Z"/></g>
<g><path style="opacity:1" fill="#0454a7" d="M 437.5,0.5 C 438.167,0.5 438.833,0.5 439.5,0.5C 439.824,141.848 439.49,283.181 438.5,424.5C 436.833,424.5 435.167,424.5 433.5,424.5C 434.11,423.609 434.443,422.609 434.5,421.5C 435.048,419.374 435.715,417.374 436.5,415.5C 437.5,277.334 437.833,139.001 437.5,0.5 Z"/></g>
<g><path style="opacity:1" fill="#245d8f" d="M 349.5,34.5 C 331.719,30.3794 313.719,29.3794 295.5,31.5C 295.5,30.5 295.5,29.5 295.5,28.5C 310.115,28.5084 324.782,28.675 339.5,29C 343.535,29.8735 347.535,30.8735 351.5,32C 350.244,32.4169 349.577,33.2502 349.5,34.5 Z"/></g>
<g><path style="opacity:1" fill="#fdfefe" d="M 349.5,34.5 C 354.129,36.4783 358.796,38.4783 363.5,40.5C 383.23,52.9009 397.563,69.9009 406.5,91.5C 409.187,103.992 410.187,116.659 409.5,129.5C 407.585,129.216 405.919,129.549 404.5,130.5C 404.167,130.5 403.833,130.5 403.5,130.5C 398.586,130.362 393.919,131.028 389.5,132.5C 384.405,132.762 379.405,133.428 374.5,134.5C 361.882,136.269 349.216,137.603 336.5,138.5C 336.827,129.318 336.493,120.318 335.5,111.5C 334.947,106.194 333.614,101.194 331.5,96.5C 331.573,94.9731 330.906,93.9731 329.5,93.5C 323.179,84.3728 314.846,82.2062 304.5,87C 297.549,91.636 293.382,98.136 292,106.5C 291.333,113.167 291.333,119.833 292,126.5C 292.21,128.058 292.71,129.391 293.5,130.5C 294.695,135.88 296.695,140.88 299.5,145.5C 305.737,155.406 313.404,164.072 322.5,171.5C 329.205,177.539 336.205,183.206 343.5,188.5C 357.112,200.948 369.945,214.281 382,228.5C 388.861,237.558 394.695,247.225 399.5,257.5C 409.173,279.872 412.506,303.206 409.5,327.5C 409.5,328.167 409.5,328.833 409.5,329.5C 407.305,337.746 404.305,345.746 400.5,353.5C 397.179,358.129 393.846,362.796 390.5,367.5C 383.765,373.576 376.765,379.243 369.5,384.5C 365.592,385.769 361.925,387.435 358.5,389.5C 336.896,397.15 314.896,398.484 292.5,393.5C 281.294,390.398 270.961,385.398 261.5,378.5C 252.404,371.072 244.737,362.406 238.5,352.5C 233.311,342.464 228.978,332.131 225.5,321.5C 222.854,310.331 221.521,298.998 221.5,287.5C 237.157,284.836 252.823,282.169 268.5,279.5C 271.152,279.59 273.485,278.924 275.5,277.5C 281.466,276.553 287.466,275.886 293.5,275.5C 293.175,283.352 293.508,291.018 294.5,298.5C 294.5,300.167 294.5,301.833 294.5,303.5C 295.72,312.382 297.887,321.049 301,329.5C 302.517,331.24 304.017,332.906 305.5,334.5C 308.913,339.591 313.746,341.925 320,341.5C 328.238,342.051 334.238,338.717 338,331.5C 341.748,322.176 342.248,312.842 339.5,303.5C 339.5,303.167 339.5,302.833 339.5,302.5C 336.021,285.537 328.354,270.871 316.5,258.5C 301.672,242.77 285.672,228.437 268.5,215.5C 250.122,200.06 236.122,181.393 226.5,159.5C 221.52,140.458 220.187,121.125 222.5,101.5C 223.59,96.8816 224.923,92.2149 226.5,87.5C 226.5,87.1667 226.5,86.8333 226.5,86.5C 229.45,79.939 232.95,73.6057 237,67.5C 241.671,61.9972 246.504,56.6638 251.5,51.5C 260.66,44.5865 270.66,39.2532 281.5,35.5C 286.324,34.3316 290.991,32.9983 295.5,31.5C 313.719,29.3794 331.719,30.3794 349.5,34.5 Z"/></g>
<g><path style="opacity:1" fill="#1c5c92" d="M 363.5,40.5 C 358.796,38.4783 354.129,36.4783 349.5,34.5C 353.39,34.2725 357.224,34.6058 361,35.5C 362.765,34.7679 363.932,33.4346 364.5,31.5C 367.167,32.8333 367.167,34.1667 364.5,35.5C 363.548,37.0453 363.215,38.712 363.5,40.5 Z"/></g>
<g><path style="opacity:1" fill="#fefefe" d="M 34.5,37.5 C 91.8333,37.5 149.167,37.5 206.5,37.5C 206.5,55.1667 206.5,72.8333 206.5,90.5C 189.833,90.5 173.167,90.5 156.5,90.5C 155.501,189.665 155.167,288.999 155.5,388.5C 132.167,388.5 108.833,388.5 85.5,388.5C 85.5,289.167 85.5,189.833 85.5,90.5C 68.8333,90.5 52.1667,90.5 35.5,90.5C 34.5143,72.9101 34.181,55.2434 34.5,37.5 Z"/></g>
<g><path style="opacity:1" fill="#225a8b" d="M 281.5,35.5 C 270.66,39.2532 260.66,44.5865 251.5,51.5C 253.861,46.8291 257.527,43.4958 262.5,41.5C 263.308,39.5767 263.808,37.5767 264,35.5C 269.539,36.4313 275.373,36.4313 281.5,35.5 Z"/></g>
<g><path style="opacity:1" fill="#d9eefd" d="M 33.5,37.5 C 33.8333,37.5 34.1667,37.5 34.5,37.5C 34.181,55.2434 34.5143,72.9101 35.5,90.5C 34.8333,90.5 34.1667,90.5 33.5,90.5C 33.5,72.8333 33.5,55.1667 33.5,37.5 Z"/></g>
<g><path style="opacity:1" fill="#295d8d" d="M 251.5,51.5 C 246.504,56.6638 241.671,61.9972 237,67.5C 232.95,73.6057 229.45,79.939 226.5,86.5C 227.195,82.0549 228.362,77.7215 230,73.5C 230.643,71.0698 232.143,69.4032 234.5,68.5C 233.754,67.2638 233.421,65.9305 233.5,64.5C 235.167,64.5 236.833,64.5 238.5,64.5C 238.5,62.8333 238.5,61.1667 238.5,59.5C 242.489,59.1644 244.822,56.9977 245.5,53C 247.345,51.872 249.345,51.372 251.5,51.5 Z"/></g>
<g><path style="opacity:1" fill="#275c8e" d="M 329.5,93.5 C 327.801,93.6602 326.134,93.4935 324.5,93C 324.957,92.586 325.291,92.086 325.5,91.5C 323.002,90.0623 320.836,90.3956 319,92.5C 317.355,92.3068 315.521,92.1402 313.5,92C 314.328,91.0853 315.328,90.4186 316.5,90C 315.359,89.2588 315.359,88.4255 316.5,87.5C 312.908,85.7003 310.241,86.5336 308.5,90C 305.638,90.2704 302.972,91.1038 300.5,92.5C 298.217,98.3515 295.55,104.018 292.5,109.5C 293.428,116.462 293.761,123.462 293.5,130.5C 292.71,129.391 292.21,128.058 292,126.5C 291.333,119.833 291.333,113.167 292,106.5C 293.382,98.136 297.549,91.636 304.5,87C 314.846,82.2062 323.179,84.3728 329.5,93.5 Z"/></g>
<g><path style="opacity:1" fill="#2a618d" d="M 226.5,87.5 C 224.923,92.2149 223.59,96.8816 222.5,101.5C 222.334,96.8215 222.501,92.1548 223,87.5C 223.333,88.1667 223.667,88.8333 224,89.5C 224.417,88.244 225.25,87.5774 226.5,87.5 Z"/></g>
<g><path style="opacity:1" fill="#125995" d="M 33.5,37.5 C 33.5,55.1667 33.5,72.8333 33.5,90.5C 46.6562,91.4956 59.9895,91.8289 73.5,91.5C 76.6248,92.4794 79.9581,92.8128 83.5,92.5C 83.8328,190.001 83.4994,287.335 82.5,384.5C 82.5,287.5 82.5,190.5 82.5,93.5C 81.0413,93.4326 79.7079,93.7659 78.5,94.5C 68.1613,94.6665 57.828,94.4998 47.5,94C 55.8333,93.6667 64.1667,93.3333 72.5,93C 60.4801,92.228 48.4801,92.3947 36.5,93.5C 34.1591,92.8178 31.8257,92.1511 29.5,91.5C 31.1737,74.2408 32.007,56.9075 32,39.5C 32.2784,38.5842 32.7784,37.9175 33.5,37.5 Z"/></g>
<g><path style="opacity:1" fill="#0c5386" d="M 73.5,91.5 C 77.1667,91.5 80.8333,91.5 84.5,91.5C 84.1672,191.001 84.5006,290.335 85.5,389.5C 86.1667,389.5 86.8333,389.5 87.5,389.5C 89.2646,390.461 91.2646,390.795 93.5,390.5C 93.3893,391.117 93.056,391.617 92.5,392C 112.167,392.333 131.833,392.667 151.5,393C 152.624,393.249 153.624,393.749 154.5,394.5C 134.789,394.2 115.122,394.534 95.5,395.5C 93.8333,395.5 92.1667,395.5 90.5,395.5C 88.7186,392.645 86.052,391.312 82.5,391.5C 82.5,389.167 82.5,386.833 82.5,384.5C 83.4994,287.335 83.8328,190.001 83.5,92.5C 79.9581,92.8128 76.6248,92.4794 73.5,91.5 Z"/></g>
<g><path style="opacity:1" fill="#729aba" d="M 33.5,90.5 C 34.1667,90.5 34.8333,90.5 35.5,90.5C 52.1667,90.5 68.8333,90.5 85.5,90.5C 85.5,189.833 85.5,289.167 85.5,388.5C 85.5,388.833 85.5,389.167 85.5,389.5C 84.5006,290.335 84.1672,191.001 84.5,91.5C 80.8333,91.5 77.1667,91.5 73.5,91.5C 59.9895,91.8289 46.6562,91.4956 33.5,90.5 Z"/></g>
<g><path style="opacity:1" fill="#2e6c9b" d="M 156.5,90.5 C 173.167,90.5 189.833,90.5 206.5,90.5C 190.342,91.4964 174.009,91.8298 157.5,91.5C 157.833,191.001 157.499,290.335 156.5,389.5C 156.5,289.833 156.5,190.167 156.5,90.5 Z"/></g>
<g><path style="opacity:1" fill="#0057a0" d="M 82.5,384.5 C 81.603,385.598 80.7697,385.598 80,384.5C 79.8309,287.763 79.3309,191.097 78.5,94.5C 79.7079,93.7659 81.0413,93.4326 82.5,93.5C 82.5,190.5 82.5,287.5 82.5,384.5 Z"/></g>
<g><path style="opacity:1" fill="#396797" d="M 404.5,130.5 C 405.919,129.549 407.585,129.216 409.5,129.5C 410.187,116.659 409.187,103.992 406.5,91.5C 407.825,90.0474 408.658,90.3808 409,92.5C 411.108,105.078 411.941,117.745 411.5,130.5C 409.167,130.5 406.833,130.5 404.5,130.5 Z"/></g>
<g><path style="opacity:1" fill="#316390" d="M 222.5,101.5 C 220.187,121.125 221.52,140.458 226.5,159.5C 225.249,157.618 224.082,155.618 223,153.5C 219.767,138.334 218.767,123.001 220,107.5C 220.002,104.949 220.836,102.949 222.5,101.5 Z"/></g>
<g><path style="opacity:1" fill="#1c5a90" d="M 331.5,96.5 C 333.614,101.194 334.947,106.194 335.5,111.5C 335.5,114.167 335.5,116.833 335.5,119.5C 334.5,119.5 333.5,119.5 332.5,119.5C 332.38,115.958 332.714,112.458 333.5,109C 333.357,106.849 332.357,105.182 330.5,104C 331.435,101.619 331.768,99.1194 331.5,96.5 Z"/></g>
<g><path style="opacity:1" fill="#245b90" d="M 38.5,33.5 C 38.8333,33.5 39.1667,33.5 39.5,33.5C 94.0269,34.1791 148.694,34.8457 203.5,35.5C 204.5,30.1667 205.5,30.1667 206.5,35.5C 207.5,35.5 208.5,35.5 209.5,35.5C 209.833,54.1786 209.5,72.8452 208.5,91.5C 192.211,92.3189 175.877,92.8189 159.5,93C 175.167,93.3333 190.833,93.6667 206.5,94C 204.236,94.2362 202.069,94.7362 200,95.5C 189.248,94.513 178.415,94.1797 167.5,94.5C 164.833,94.5 162.167,94.5 159.5,94.5C 159.5,191.5 159.5,288.5 159.5,385.5C 158.539,387.265 158.205,389.265 158.5,391.5C 136.86,390.544 115.193,390.211 93.5,390.5C 91.2646,390.795 89.2646,390.461 87.5,389.5C 110.5,389.5 133.5,389.5 156.5,389.5C 157.499,290.335 157.833,191.001 157.5,91.5C 174.009,91.8298 190.342,91.4964 206.5,90.5C 206.5,72.8333 206.5,55.1667 206.5,37.5C 149.167,37.5 91.8333,37.5 34.5,37.5C 34.1667,37.5 33.8333,37.5 33.5,37.5C 33.5,35.5 33.5,33.5 33.5,31.5C 35.3224,31.8308 36.9891,32.4975 38.5,33.5 Z"/></g>
<g><path style="opacity:1" fill="#0157ae" d="M 39.5,33.5 C 39.1667,33.5 38.8333,33.5 38.5,33.5C 37.537,32.6365 37.537,31.9698 38.5,31.5C 92.1258,32.329 145.792,32.829 199.5,33C 146.168,33.5 92.8344,33.6667 39.5,33.5 Z"/></g>
<g><path style="opacity:1" fill="#00579f" d="M 167.5,94.5 C 166.27,97.2308 165.604,100.231 165.5,103.5C 165.249,197.361 165.582,291.195 166.5,385C 166.241,386.261 165.574,387.261 164.5,388C 165.833,388.667 165.833,389.333 164.5,390C 165.167,390.333 165.833,390.667 166.5,391C 165.207,391.49 163.873,391.657 162.5,391.5C 162.969,388.607 161.969,386.607 159.5,385.5C 159.5,288.5 159.5,191.5 159.5,94.5C 162.167,94.5 164.833,94.5 167.5,94.5 Z"/></g>
<g><path style="opacity:1" fill="#4e759a" d="M 403.5,130.5 C 399.081,131.972 394.414,132.638 389.5,132.5C 393.919,131.028 398.586,130.362 403.5,130.5 Z"/></g>
<g><path style="opacity:1" fill="#3a6a93" d="M 335.5,111.5 C 336.493,120.318 336.827,129.318 336.5,138.5C 349.216,137.603 361.882,136.269 374.5,134.5C 369.702,135.964 364.702,137.131 359.5,138C 351.444,138.401 343.444,139.235 335.5,140.5C 335.5,133.5 335.5,126.5 335.5,119.5C 335.5,116.833 335.5,114.167 335.5,111.5 Z"/></g>
<g><path style="opacity:1" fill="#275c8c" d="M 299.5,145.5 C 301.115,147.374 303.115,148.708 305.5,149.5C 305.351,150.552 305.517,151.552 306,152.5C 308.803,154.302 310.969,156.635 312.5,159.5C 313.989,159.533 315.322,160.033 316.5,161C 315.72,162.073 315.887,163.24 317,164.5C 318.506,166.174 320.339,167.174 322.5,167.5C 322.5,168.833 322.5,170.167 322.5,171.5C 313.404,164.072 305.737,155.406 299.5,145.5 Z"/></g>
<g><path style="opacity:1" fill="#265a8b" d="M 322.5,171.5 C 326.723,173.89 331.056,176.057 335.5,178C 338.244,179.324 339.577,181.491 339.5,184.5C 340.822,184.67 341.989,184.337 343,183.5C 343.494,185.134 343.66,186.801 343.5,188.5C 336.205,183.206 329.205,177.539 322.5,171.5 Z"/></g>
<g><path style="opacity:1" fill="#245e94" d="M 268.5,215.5 C 285.672,228.437 301.672,242.77 316.5,258.5C 314.917,257.373 312.917,257.373 310.5,258.5C 310.5,257.5 310.5,256.5 310.5,255.5C 308.712,255.785 307.045,255.452 305.5,254.5C 308.096,252.703 307.763,251.369 304.5,250.5C 303.571,249.311 303.238,247.978 303.5,246.5C 300.753,246.813 298.086,246.48 295.5,245.5C 296.833,244.833 298.167,244.167 299.5,243.5C 294.248,239.387 289.248,235.053 284.5,230.5C 282.885,229.846 281.218,229.346 279.5,229C 279.957,228.586 280.291,228.086 280.5,227.5C 277.506,225.339 274.839,222.839 272.5,220C 271.207,219.51 269.873,219.343 268.5,219.5C 268.5,218.167 268.5,216.833 268.5,215.5 Z"/></g>
<g><path style="opacity:1" fill="#376690" d="M 294.5,298.5 C 293.508,291.018 293.175,283.352 293.5,275.5C 287.466,275.886 281.466,276.553 275.5,277.5C 275.881,276.069 276.881,275.236 278.5,275C 283.822,274.316 289.156,273.816 294.5,273.5C 294.5,281.833 294.5,290.167 294.5,298.5 Z"/></g>
<g><path style="opacity:1" fill="#77a1be" d="M 271.5,277.5 C 272.833,277.5 274.167,277.5 275.5,277.5C 273.485,278.924 271.152,279.59 268.5,279.5C 269.5,278.833 270.5,278.167 271.5,277.5 Z"/></g>
<g><path style="opacity:1" fill="#285f8b" d="M 271.5,277.5 C 270.5,278.167 269.5,278.833 268.5,279.5C 252.823,282.169 237.157,284.836 221.5,287.5C 221.521,298.998 222.854,310.331 225.5,321.5C 223.52,319.716 222.52,317.383 222.5,314.5C 220.941,304.898 219.941,295.231 219.5,285.5C 231.932,285.202 243.932,282.869 255.5,278.5C 260.792,277.505 266.125,277.172 271.5,277.5 Z"/></g>
<g><path style="opacity:1" fill="#2a5e90" d="M 316.5,258.5 C 328.354,270.871 336.021,285.537 339.5,302.5C 337.499,296.814 335.166,291.147 332.5,285.5C 331.719,286.729 331.219,288.062 331,289.5C 326.901,289.275 326.567,287.609 330,284.5C 330.494,282.866 330.66,281.199 330.5,279.5C 329.5,279.5 328.5,279.5 327.5,279.5C 327.66,277.801 327.494,276.134 327,274.5C 324.676,273.193 323.343,271.193 323,268.5C 318.441,266.744 316.274,263.411 316.5,258.5 Z"/></g>
<g><path style="opacity:1" fill="#205d93" d="M 399.5,257.5 C 401.371,257.859 402.871,258.859 404,260.5C 404.617,265.253 405.617,269.92 407,274.5C 408.887,276.026 409.887,278.026 410,280.5C 410.333,280.167 410.667,279.833 411,279.5C 412.195,282.187 412.362,284.854 411.5,287.5C 411.846,288.696 412.346,288.696 413,287.5C 414.285,291.172 414.452,294.839 413.5,298.5C 412.749,297.624 412.249,296.624 412,295.5C 411.251,304.521 411.418,313.521 412.5,322.5C 412.735,325.048 411.735,326.714 409.5,327.5C 412.506,303.206 409.173,279.872 399.5,257.5 Z"/></g>
<g><path style="opacity:1" fill="#245a89" d="M 294.5,303.5 C 295.586,303.62 296.253,304.287 296.5,305.5C 297.829,311.469 298.996,317.469 300,323.5C 303.824,326.12 305.657,329.787 305.5,334.5C 304.017,332.906 302.517,331.24 301,329.5C 297.887,321.049 295.72,312.382 294.5,303.5 Z"/></g>
<g><path style="opacity:1" fill="#34648e" d="M 225.5,321.5 C 228.978,332.131 233.311,342.464 238.5,352.5C 236.328,351.584 234.994,349.917 234.5,347.5C 233.675,346.614 232.675,346.281 231.5,346.5C 229.466,338.089 227.466,329.756 225.5,321.5 Z"/></g>
<g><path style="opacity:1" fill="#30618f" d="M 339.5,303.5 C 342.248,312.842 341.748,322.176 338,331.5C 334.238,338.717 328.238,342.051 320,341.5C 313.746,341.925 308.913,339.591 305.5,334.5C 308.407,331.601 310.407,332.267 311.5,336.5C 313.598,337.632 315.765,338.632 318,339.5C 321.776,338.606 325.61,338.272 329.5,338.5C 329.5,337.5 329.5,336.5 329.5,335.5C 330.833,335.5 332.167,335.5 333.5,335.5C 333.12,332.208 334.453,329.875 337.5,328.5C 339.284,320.285 339.951,311.952 339.5,303.5 Z"/></g>
<g><path style="opacity:1" fill="#36628d" d="M 409.5,329.5 C 409.831,338.91 406.831,346.91 400.5,353.5C 404.305,345.746 407.305,337.746 409.5,329.5 Z"/></g>
<g><path style="opacity:1" fill="#245b8b" d="M 390.5,367.5 C 387.923,370.599 385.923,374.099 384.5,378C 380.833,379.667 377.167,381.333 373.5,383C 374.167,383.333 374.833,383.667 375.5,384C 373.527,384.495 371.527,384.662 369.5,384.5C 376.765,379.243 383.765,373.576 390.5,367.5 Z"/></g>
<g><path style="opacity:1" fill="#92c3e7" d="M 156.5,90.5 C 156.5,190.167 156.5,289.833 156.5,389.5C 133.5,389.5 110.5,389.5 87.5,389.5C 86.8333,389.5 86.1667,389.5 85.5,389.5C 85.5,389.167 85.5,388.833 85.5,388.5C 108.833,388.5 132.167,388.5 155.5,388.5C 155.167,288.999 155.501,189.665 156.5,90.5 Z"/></g>
<g><path style="opacity:1" fill="#125997" d="M 261.5,378.5 C 270.961,385.398 281.294,390.398 292.5,393.5C 294.305,395.197 296.639,396.03 299.5,396C 300.381,396.708 301.047,397.542 301.5,398.5C 299.473,398.662 297.473,398.495 295.5,398C 293.159,396.047 290.493,394.881 287.5,394.5C 287.67,395.822 287.337,396.989 286.5,398C 284.287,398.626 282.12,398.459 280,397.5C 278.433,398.856 276.6,399.523 274.5,399.5C 274.48,397.857 275.147,396.524 276.5,395.5C 274.525,394.251 274.191,392.751 275.5,391C 272.881,386.809 269.214,385.475 264.5,387C 264.043,386.586 263.709,386.086 263.5,385.5C 266.18,382.853 265.513,381.52 261.5,381.5C 261.5,380.5 261.5,379.5 261.5,378.5 Z"/></g>
<g><path style="opacity:1" fill="#0054a8" d="M 90.5,395.5 C 92.1667,395.5 93.8333,395.5 95.5,395.5C 115.337,396.167 135.337,396.833 155.5,397.5C 134.508,398.666 113.508,398.833 92.5,398C 90.065,397.925 89.3984,397.092 90.5,395.5 Z"/></g>
<g><path style="opacity:1" fill="#225d8f" d="M 358.5,389.5 C 356.719,393.743 353.386,395.91 348.5,396C 332.933,398.12 317.267,398.953 301.5,398.5C 301.047,397.542 300.381,396.708 299.5,396C 296.639,396.03 294.305,395.197 292.5,393.5C 314.896,398.484 336.896,397.15 358.5,389.5 Z"/></g>
<g><path style="opacity:1" fill="#0057a1" d="M 424.5,415.5 C 424.657,416.873 424.49,418.207 424,419.5C 287.71,417.503 151.21,416.836 14.5,417.5C 14.3893,416.883 14.056,416.383 13.5,416C 150.5,415.5 287.5,415.333 424.5,415.5 Z"/></g>
<g><path style="opacity:1" fill="#045797" d="M 428.5,415.5 C 427.527,417.948 427.194,420.615 427.5,423.5C 426.209,423.737 425.209,423.404 424.5,422.5C 424.631,421.761 424.464,421.094 424,420.5C 287.903,421.666 151.736,421.832 15.5,421C 12.2942,420.073 11.9608,418.907 14.5,417.5C 151.21,416.836 287.71,417.503 424,419.5C 424.49,418.207 424.657,416.873 424.5,415.5C 424.757,281.175 424.757,146.841 424.5,12.5C 425.067,10.9705 425.733,9.47049 426.5,8C 425.5,7.66667 424.5,7.33333 423.5,7C 425.134,6.50649 426.801,6.33982 428.5,6.5C 428.516,142.685 428.516,279.018 428.5,415.5 Z"/></g>
<g><path style="opacity:1" fill="#0056a5" d="M 428.5,415.5 C 429.183,418.516 430.183,421.516 431.5,424.5C 292.5,424.5 153.5,424.5 14.5,424.5C 13.8333,424.5 13.1667,424.5 12.5,424.5C 149.496,422.502 286.829,421.835 424.5,422.5C 425.209,423.404 426.209,423.737 427.5,423.5C 427.194,420.615 427.527,417.948 428.5,415.5 Z"/></g>
<g><path style="opacity:1" fill="#11528c" d="M 439.5,0.5 C 440.5,142.332 440.833,284.332 440.5,426.5C 298.833,426.5 157.167,426.5 15.5,426.5C 15.1667,425.833 14.8333,425.167 14.5,424.5C 153.5,424.5 292.5,424.5 431.5,424.5C 432.167,424.5 432.833,424.5 433.5,424.5C 435.167,424.5 436.833,424.5 438.5,424.5C 439.49,283.181 439.824,141.848 439.5,0.5 Z"/></g>
<g><path style="opacity:1" fill="#3b6c9a" d="M 428.5,509.5 C 428.5,509.167 428.5,508.833 428.5,508.5C 432.167,508.5 435.833,508.5 439.5,508.5C 439.5,505.833 439.5,503.167 439.5,500.5C 439.5,494.167 439.5,487.833 439.5,481.5C 436.518,481.896 433.851,481.229 431.5,479.5C 429.263,481.817 426.93,481.983 424.5,480C 286.167,479.333 147.833,479.333 9.5,480C 7.61828,480.198 5.95161,480.698 4.5,481.5C 4.33418,486.179 4.50085,490.845 5,495.5C 5.11183,498.447 6.61183,499.78 9.5,499.5C 9.61071,500.117 9.94404,500.617 10.5,501C 6.11781,501.003 4.45115,503.169 5.5,507.5C 4.83333,503.833 4.16667,500.167 3.5,496.5C 3.5,490.167 3.5,483.833 3.5,477.5C 149.188,477.173 294.855,477.506 440.5,478.5C 440.5,488.833 440.5,499.167 440.5,509.5C 436.5,509.5 432.5,509.5 428.5,509.5 Z"/></g>
<g><path style="opacity:1" fill="#01569a" d="M 439.5,500.5 C 438.504,500.586 437.671,500.252 437,499.5C 436.261,501.221 435.427,502.887 434.5,504.5C 431.498,505.704 429.832,504.537 429.5,501C 431.706,499.75 433.039,497.916 433.5,495.5C 434.5,495.5 435.5,495.5 436.5,495.5C 436.5,492.833 436.5,490.167 436.5,487.5C 435.167,487.5 433.833,487.5 432.5,487.5C 432.816,490.978 432.316,494.312 431,497.5C 429.989,496.663 428.822,496.33 427.5,496.5C 427.5,497.5 427.5,498.5 427.5,499.5C 427.167,499.5 426.833,499.5 426.5,499.5C 288.667,498.667 150.667,498.167 12.5,498C 11.0953,496.731 9.42865,496.231 7.5,496.5C 7.5,491.5 7.5,486.5 7.5,481.5C 6.5,481.5 5.5,481.5 4.5,481.5C 5.95161,480.698 7.61828,480.198 9.5,480C 147.833,479.333 286.167,479.333 424.5,480C 426.93,481.983 429.263,481.817 431.5,479.5C 433.851,481.229 436.518,481.896 439.5,481.5C 439.5,487.833 439.5,494.167 439.5,500.5 Z"/></g>
<g><path style="opacity:1" fill="#02559e" d="M 14.5,481.5 C 15.4345,482.568 15.7678,483.901 15.5,485.5C 151.5,485.5 287.5,485.5 423.5,485.5C 423.03,481.03 424.03,480.53 426.5,484C 425.833,485 425.167,486 424.5,487C 288.167,487.667 151.833,487.667 15.5,487C 13.9386,486.059 12.6053,484.892 11.5,483.5C 12.6016,482.824 13.6016,482.158 14.5,481.5 Z"/></g>
<g><path style="opacity:1" fill="#02559f" d="M 4.5,481.5 C 5.5,481.5 6.5,481.5 7.5,481.5C 7.5,486.5 7.5,491.5 7.5,496.5C 9.42865,496.231 11.0953,496.731 12.5,498C 150.667,498.167 288.667,498.667 426.5,499.5C 288.496,498.835 150.829,499.502 13.5,501.5C 12.1667,500.833 10.8333,500.167 9.5,499.5C 6.61183,499.78 5.11183,498.447 5,495.5C 4.50085,490.845 4.33418,486.179 4.5,481.5 Z"/></g>
<g><path style="opacity:1" fill="#005697" d="M 439.5,500.5 C 439.5,503.167 439.5,505.833 439.5,508.5C 435.833,508.5 432.167,508.5 428.5,508.5C 428.167,508.5 427.833,508.5 427.5,508.5C 427.918,507.778 428.584,507.278 429.5,507C 428.833,506.667 428.167,506.333 427.5,506C 288.999,505.833 150.666,505.333 12.5,504.5C 10.9891,503.498 9.32239,502.831 7.5,502.5C 7.71351,504.144 7.38017,505.644 6.5,507C 8.38172,507.198 10.0484,507.698 11.5,508.5C 9.26465,508.795 7.26465,508.461 5.5,507.5C 4.45115,503.169 6.11781,501.003 10.5,501C 9.94404,500.617 9.61071,500.117 9.5,499.5C 10.8333,500.167 12.1667,500.833 13.5,501.5C 151.837,502.165 289.837,501.498 427.5,499.5C 427.5,498.5 427.5,497.5 427.5,496.5C 428.822,496.33 429.989,496.663 431,497.5C 432.316,494.312 432.816,490.978 432.5,487.5C 433.833,487.5 435.167,487.5 436.5,487.5C 436.5,490.167 436.5,492.833 436.5,495.5C 435.5,495.5 434.5,495.5 433.5,495.5C 433.039,497.916 431.706,499.75 429.5,501C 429.832,504.537 431.498,505.704 434.5,504.5C 435.427,502.887 436.261,501.221 437,499.5C 437.671,500.252 438.504,500.586 439.5,500.5 Z"/></g>
<g><path style="opacity:1" fill="#00598d" d="M 12.5,504.5 C 80.8301,503.167 149.497,502.5 218.5,502.5C 287.167,502.667 355.833,502.833 424.5,503C 287.139,503.172 149.806,503.672 12.5,504.5 Z"/></g>
<g><path style="opacity:1" fill="#0256a8" d="M 426.5,499.5 C 426.833,499.5 427.167,499.5 427.5,499.5C 289.837,501.498 151.837,502.165 13.5,501.5C 150.829,499.502 288.496,498.835 426.5,499.5 Z"/></g>
<g><path style="opacity:1" fill="#fbfdfd" d="M -0.5,506.5 C 0.526127,507.853 1.85946,508.853 3.5,509.5C 150.069,510.832 296.736,510.832 443.5,509.5C 443.5,547.833 443.5,586.167 443.5,624.5C 295.5,624.5 147.5,624.5 -0.5,624.5C -0.5,585.167 -0.5,545.833 -0.5,506.5 Z"/></g>
<g><path style="opacity:1" fill="#05549f" d="M 12.5,504.5 C 150.666,505.333 288.999,505.833 427.5,506C 428.167,506.333 428.833,506.667 429.5,507C 428.584,507.278 427.918,507.778 427.5,508.5C 288.833,508.5 150.167,508.5 11.5,508.5C 10.0484,507.698 8.38172,507.198 6.5,507C 7.38017,505.644 7.71351,504.144 7.5,502.5C 9.32239,502.831 10.9891,503.498 12.5,504.5 Z"/></g>
<g><path style="opacity:1" fill="#174c7f" d="M 3.5,496.5 C 4.16667,500.167 4.83333,503.833 5.5,507.5C 7.26465,508.461 9.26465,508.795 11.5,508.5C 150.167,508.5 288.833,508.5 427.5,508.5C 427.833,508.5 428.167,508.5 428.5,508.5C 428.5,508.833 428.5,509.167 428.5,509.5C 286.833,509.5 145.167,509.5 3.5,509.5C 3.5,505.167 3.5,500.833 3.5,496.5 Z"/></g>
<g><path style="opacity:1" fill="#295f8d" d="M 43.5,536.5 C 29.8418,537.115 16.1752,537.448 2.5,537.5C 2.5,540.5 2.5,543.5 2.5,546.5C 5.16667,546.5 7.83333,546.5 10.5,546.5C 10.5,545.5 10.5,544.5 10.5,543.5C 11.5,543.5 12.5,543.5 13.5,543.5C 13.5,544.833 13.5,546.167 13.5,547.5C 9.5,547.5 5.5,547.5 1.5,547.5C 1.5,543.167 1.5,538.833 1.5,534.5C 15.8733,533.851 29.8733,534.518 43.5,536.5 Z"/></g>
<g><path style="opacity:1" fill="#4a759a" d="M 68.5,570.5 C 67.508,563.018 67.1746,555.352 67.5,547.5C 67.67,546.178 67.3366,545.011 66.5,544C 67.1667,543.833 67.8333,543.667 68.5,543.5C 73.676,545.453 79.0093,545.953 84.5,545C 85.8333,542.333 85.8333,539.667 84.5,537C 73.8385,536.5 63.1719,536.333 52.5,536.5C 51.661,546.81 51.3277,557.143 51.5,567.5C 51.5,585.5 51.5,603.5 51.5,621.5C 50.3362,593.003 50.1696,564.336 51,535.5C 62.7573,534.346 74.5907,534.179 86.5,535C 87.7948,538.786 87.7948,542.62 86.5,546.5C 80.561,547.457 74.561,547.79 68.5,547.5C 68.5,555.167 68.5,562.833 68.5,570.5 Z"/></g>
<g><path style="opacity:1" fill="#205a8d" d="M 271.5,544.5 C 270.5,544.5 269.5,544.5 268.5,544.5C 268.174,542.339 267.174,540.506 265.5,539C 256.158,537.034 246.825,537.034 237.5,539C 235.63,541.04 233.63,542.873 231.5,544.5C 234.412,538.856 239.079,535.356 245.5,534C 256.806,531.471 265.473,534.971 271.5,544.5 Z"/></g>
<g><path style="opacity:1" fill="#285e8d" d="M 132.5,537.5 C 130.833,537.5 129.167,537.5 127.5,537.5C 123.626,536.239 119.626,535.572 115.5,535.5C 113.167,535.5 110.833,535.5 108.5,535.5C 108.657,536.873 108.49,538.207 108,539.5C 106.644,538.62 105.144,538.286 103.5,538.5C 103.109,541.94 101.276,544.273 98,545.5C 96.6699,550.41 95.1699,555.076 93.5,559.5C 94.831,539.339 105.498,530.839 125.5,534C 128.069,534.898 130.402,536.065 132.5,537.5 Z"/></g>
<g><path style="opacity:1" fill="#0256a8" d="M 115.5,535.5 C 119.626,535.572 123.626,536.239 127.5,537.5C 128.919,538.451 130.585,538.784 132.5,538.5C 132.5,539.5 132.5,540.5 132.5,541.5C 128.751,541.249 125.085,540.583 121.5,539.5C 118.695,538.681 115.695,538.181 112.5,538C 114.119,537.764 115.119,536.931 115.5,535.5 Z"/></g>
<g><path style="opacity:1" fill="#05569a" d="M 43.5,536.5 C 43.5,538.833 43.5,541.167 43.5,543.5C 42.596,544.209 42.2627,545.209 42.5,546.5C 38.5633,546.793 34.73,546.46 31,545.5C 28.2159,548.284 26.5492,547.617 26,543.5C 25.7216,544.416 25.2216,545.082 24.5,545.5C 24.6309,544.624 24.2975,543.957 23.5,543.5C 22.548,544.533 22.548,545.7 23.5,547C 23.1639,548.03 22.4972,548.53 21.5,548.5C 21.5,546.833 21.5,545.167 21.5,543.5C 20.5,543.5 19.5,543.5 18.5,543.5C 18.8224,565.546 18.489,587.546 17.5,609.5C 18.325,610.386 19.325,610.719 20.5,610.5C 18.4687,610.972 16.8021,611.972 15.5,613.5C 15.1667,613.5 14.8333,613.5 14.5,613.5C 14.8219,591.425 14.4886,569.425 13.5,547.5C 13.5,546.167 13.5,544.833 13.5,543.5C 12.5,543.5 11.5,543.5 10.5,543.5C 10.5,544.5 10.5,545.5 10.5,546.5C 7.83333,546.5 5.16667,546.5 2.5,546.5C 2.5,543.5 2.5,540.5 2.5,537.5C 16.1752,537.448 29.8418,537.115 43.5,536.5 Z"/></g>
<g><path style="opacity:1" fill="#255b8a" d="M 299.5,535.5 C 294.26,536.449 288.927,536.782 283.5,536.5C 283.5,562.5 283.5,588.5 283.5,614.5C 287.514,614.334 291.514,614.501 295.5,615C 296.337,616.011 296.67,617.178 296.5,618.5C 293.482,618.665 290.482,618.498 287.5,618C 286.069,617.535 284.903,616.701 284,615.5C 283.506,617.134 283.34,618.801 283.5,620.5C 288.87,620.392 294.203,620.725 299.5,621.5C 294.025,622.489 288.358,622.822 282.5,622.5C 282.333,593.498 282.5,564.498 283,535.5C 288.599,534.175 294.099,534.175 299.5,535.5 Z"/></g>
<g><path style="opacity:1" fill="#04569c" d="M 315.5,536.5 C 316.827,540.783 317.493,545.449 317.5,550.5C 317.333,555.167 317.167,559.833 317,564.5C 316.895,568.37 316.062,572.037 314.5,575.5C 314.232,572.723 313.899,570.057 313.5,567.5C 312.895,556.909 313.562,546.575 315.5,536.5 Z"/></g>
<g><path style="opacity:1" fill="#457399" d="M 329.5,535.5 C 324.637,535.181 319.97,535.514 315.5,536.5C 313.562,546.575 312.895,556.909 313.5,567.5C 313.737,568.791 313.404,569.791 312.5,570.5C 312.5,558.5 312.5,546.5 312.5,534.5C 318.358,534.178 324.025,534.511 329.5,535.5 Z"/></g>
<g><path style="opacity:1" fill="#366e97" d="M 183.5,535.5 C 188.64,534.512 193.974,534.179 199.5,534.5C 199.5,563.833 199.5,593.167 199.5,622.5C 193.642,622.822 187.975,622.489 182.5,621.5C 187.833,621.5 193.167,621.5 198.5,621.5C 198.5,594.5 198.5,567.5 198.5,540.5C 198.5,539.5 198.5,538.5 198.5,537.5C 195.997,536.629 193.33,535.963 190.5,535.5C 188.167,535.5 185.833,535.5 183.5,535.5 Z"/></g>
<g><path style="opacity:1" fill="#fafdfd" d="M 373.5,602.5 C 372.326,607.659 368.992,610.326 363.5,610.5C 362.469,609.751 361.302,609.085 360,608.5C 359.34,605.322 358.507,602.322 357.5,599.5C 357.333,585.829 357.5,572.163 358,558.5C 358.395,555.793 358.895,553.127 359.5,550.5C 362.419,546.068 366.086,545.402 370.5,548.5C 371.584,549.665 372.417,550.998 373,552.5C 373.5,569.163 373.667,585.83 373.5,602.5 Z"/></g>
<g><path style="opacity:1" fill="#025792" d="M 21.5,548.5 C 21.8305,569.34 21.4972,590.007 20.5,610.5C 19.325,610.719 18.325,610.386 17.5,609.5C 18.489,587.546 18.8224,565.546 18.5,543.5C 19.5,543.5 20.5,543.5 21.5,543.5C 21.5,545.167 21.5,546.833 21.5,548.5 Z"/></g>
<g><path style="opacity:1" fill="#18507b" d="M 183.5,535.5 C 185.833,535.5 188.167,535.5 190.5,535.5C 188.444,536.216 186.277,536.883 184,537.5C 183.096,547.788 183.596,557.955 185.5,568C 184.627,569.045 183.627,569.878 182.5,570.5C 182.172,558.655 182.505,546.988 183.5,535.5 Z"/></g>
<g><path style="opacity:1" fill="#2a5989" d="M 433.5,538.5 C 422.915,536.806 412.249,536.14 401.5,536.5C 401.5,538.833 401.5,541.167 401.5,543.5C 401.523,569.012 401.523,594.345 401.5,619.5C 406.12,620.493 410.786,620.827 415.5,620.5C 415.833,620.5 416.167,620.5 416.5,620.5C 411.36,621.488 406.026,621.821 400.5,621.5C 400.5,592.5 400.5,563.5 400.5,534.5C 410.217,534.176 419.884,534.676 429.5,536C 431.066,536.608 432.4,537.442 433.5,538.5 Z"/></g>
<g><path style="opacity:1" fill="#135282" d="M 67.5,547.5 C 67.1746,555.352 67.508,563.018 68.5,570.5C 72.2984,571.483 76.2984,571.817 80.5,571.5C 80.8412,575.16 80.1745,578.493 78.5,581.5C 78.9452,578.72 78.9452,576.053 78.5,573.5C 74.6229,572.803 70.7896,572.136 67,571.5C 66.1772,563.323 66.3439,555.323 67.5,547.5 Z"/></g>
<g><path style="opacity:1" fill="#265985" d="M 231.5,544.5 C 230.838,548.157 230.171,551.824 229.5,555.5C 230.169,559.843 230.836,564.177 231.5,568.5C 228.129,561.163 227.629,553.496 230,545.5C 230.383,544.944 230.883,544.611 231.5,544.5 Z"/></g>
<g><path style="opacity:1" fill="#275f95" d="M 387.5,610.5 C 388.101,604.821 388.768,599.155 389.5,593.5C 390.096,578.07 389.262,562.737 387,547.5C 386.29,546.027 385.124,545.36 383.5,545.5C 383.627,542.755 382.46,540.755 380,539.5C 378.902,540.967 377.402,541.801 375.5,542C 371.848,542.499 368.182,542.665 364.5,542.5C 364.651,545.718 365.484,546.051 367,543.5C 368.171,544.893 369.671,545.727 371.5,546C 372.794,548.087 373.961,550.254 375,552.5C 375.333,552.167 375.667,551.833 376,551.5C 374.626,568.38 374.126,585.38 374.5,602.5C 374.167,602.5 373.833,602.5 373.5,602.5C 373.667,585.83 373.5,569.163 373,552.5C 372.417,550.998 371.584,549.665 370.5,548.5C 366.086,545.402 362.419,546.068 359.5,550.5C 357.715,550.926 356.715,552.092 356.5,554C 355.784,556.792 355.451,559.626 355.5,562.5C 354.095,559.074 353.095,555.408 352.5,551.5C 351.374,549.207 350.041,547.04 348.5,545C 349.833,544.667 351.167,544.333 352.5,544C 351.929,542.795 351.262,541.628 350.5,540.5C 349.305,542.297 347.638,543.297 345.5,543.5C 348.27,538.425 352.604,535.258 358.5,534C 376.485,531.335 387.318,538.835 391,556.5C 391.667,569.833 391.667,583.167 391,596.5C 390.746,601.516 389.579,606.183 387.5,610.5 Z"/></g>
<g><path style="opacity:1" fill="#0456a0" d="M 364.5,534.5 C 382.041,537.707 381.708,539.207 363.5,539C 362.5,539.5 361.5,540 360.5,540.5C 359.833,543.167 359.167,545.833 358.5,548.5C 357.264,549.246 355.93,549.579 354.5,549.5C 354.206,545.9 353.54,542.4 352.5,539C 356.363,537.646 360.363,537.146 364.5,537.5C 364.5,536.5 364.5,535.5 364.5,534.5 Z"/></g>
<g><path style="opacity:1" fill="#09579b" d="M 271.5,544.5 C 271.833,545.167 272.167,545.833 272.5,546.5C 273.051,549.807 273.384,553.14 273.5,556.5C 269.107,556.543 264.774,556.709 260.5,557C 259.584,556.626 258.75,556.126 258,555.5C 257.667,553.167 257.333,550.833 257,548.5C 256.329,547.748 255.496,547.414 254.5,547.5C 251.096,545.802 248.262,546.469 246,549.5C 245.118,554.353 245.618,559.019 247.5,563.5C 247.351,564.552 247.517,565.552 248,566.5C 249.959,567.748 251.459,569.415 252.5,571.5C 253.325,572.386 254.325,572.719 255.5,572.5C 255.5,573.833 255.5,575.167 255.5,576.5C 257.5,576.5 259.5,576.5 261.5,576.5C 262.014,578.512 262.18,580.512 262,582.5C 261.586,582.957 261.086,583.291 260.5,583.5C 259.548,581.955 259.215,580.288 259.5,578.5C 257.856,578.714 256.356,578.38 255,577.5C 253.336,580.289 253.17,583.123 254.5,586C 253.437,587.188 252.103,587.688 250.5,587.5C 242.806,582.473 236.473,576.139 231.5,568.5C 230.836,564.177 230.169,559.843 229.5,555.5C 230.171,551.824 230.838,548.157 231.5,544.5C 233.63,542.873 235.63,541.04 237.5,539C 246.825,537.034 256.158,537.034 265.5,539C 267.174,540.506 268.174,542.339 268.5,544.5C 269.5,544.5 270.5,544.5 271.5,544.5 Z"/></g>
<g><path style="opacity:1" fill="#2f628c" d="M 272.5,546.5 C 274.547,549.902 274.881,553.569 273.5,557.5C 267.947,559.022 262.28,559.689 256.5,559.5C 256.921,555.258 256.254,551.258 254.5,547.5C 255.496,547.414 256.329,547.748 257,548.5C 257.333,550.833 257.667,553.167 258,555.5C 258.75,556.126 259.584,556.626 260.5,557C 264.774,556.709 269.107,556.543 273.5,556.5C 273.384,553.14 273.051,549.807 272.5,546.5 Z"/></g>
<g><path style="opacity:1" fill="#05558d" d="M 43.5,543.5 C 43.5,544.833 43.5,546.167 43.5,547.5C 39.1667,547.5 34.8333,547.5 30.5,547.5C 30.5,567.833 30.5,588.167 30.5,608.5C 29.8333,589.662 29.1667,570.662 28.5,551.5C 27.8333,571.833 27.1667,592.167 26.5,612.5C 25.8333,590.67 25.1667,569.004 24.5,547.5C 24.5,546.833 24.5,546.167 24.5,545.5C 25.2216,545.082 25.7216,544.416 26,543.5C 26.5492,547.617 28.2159,548.284 31,545.5C 34.73,546.46 38.5633,546.793 42.5,546.5C 42.2627,545.209 42.596,544.209 43.5,543.5 Z"/></g>
<g><path style="opacity:1" fill="#095796" d="M 127.5,537.5 C 129.167,537.5 130.833,537.5 132.5,537.5C 137.931,540.598 140.931,545.265 141.5,551.5C 141.5,552.167 141.5,552.833 141.5,553.5C 140.515,556.057 139.515,558.724 138.5,561.5C 138.167,561.167 137.833,560.833 137.5,560.5C 138.262,554.88 138.262,549.214 137.5,543.5C 136.5,543.5 135.5,543.5 134.5,543.5C 133.761,548.82 133.094,554.154 132.5,559.5C 131.5,559.5 130.5,559.5 129.5,559.5C 129.828,554.125 129.495,548.792 128.5,543.5C 125.894,545.418 124.894,548.084 125.5,551.5C 124.163,550.685 123.163,549.518 122.5,548C 119.833,547.333 117.167,547.333 114.5,548C 112.752,550.013 111.418,552.18 110.5,554.5C 109.504,570.658 109.17,586.991 109.5,603.5C 107.656,605.279 106.99,607.612 107.5,610.5C 100.401,608.78 99.7347,610.28 105.5,615C 104.391,616.813 105.058,617.646 107.5,617.5C 107.5,616.167 107.5,614.833 107.5,613.5C 108.675,613.281 109.675,613.614 110.5,614.5C 108.984,617.174 109.317,619.508 111.5,621.5C 104.704,619.712 100.037,615.379 97.5,608.5C 96.8933,608.624 96.56,608.957 96.5,609.5C 94.9318,607.189 94.0984,604.522 94,601.5C 93.5017,598.183 93.335,594.85 93.5,591.5C 94.3297,582.676 94.8297,573.676 95,564.5C 95.3333,577.833 95.6667,591.167 96,604.5C 96.3333,604.167 96.6667,603.833 97,603.5C 97.8231,588.925 97.6564,574.425 96.5,560C 97.448,559.517 98.448,559.351 99.5,559.5C 100.438,575.481 101.104,591.481 101.5,607.5C 102.5,607.5 103.5,607.5 104.5,607.5C 104.503,603.476 104.836,599.476 105.5,595.5C 104.249,582.79 102.915,570.123 101.5,557.5C 101.899,555.803 102.399,554.137 103,552.5C 104.418,555.001 105.418,554.668 106,551.5C 106.5,552.5 107,553.5 107.5,554.5C 106.187,566.801 106.187,579.134 107.5,591.5C 108.002,580.851 108.169,570.185 108,559.5C 108.602,555.117 109.435,550.784 110.5,546.5C 113.484,544.999 116.651,543.999 120,543.5C 120.826,545.405 121.993,545.739 123.5,544.5C 119.122,542.361 114.455,541.028 109.5,540.5C 113.445,539.509 117.445,539.176 121.5,539.5C 125.085,540.583 128.751,541.249 132.5,541.5C 132.5,540.5 132.5,539.5 132.5,538.5C 130.585,538.784 128.919,538.451 127.5,537.5 Z"/></g>
<g><path style="opacity:1" fill="#296294" d="M 168.5,535.5 C 168.5,538.167 168.5,540.833 168.5,543.5C 168.06,541.156 167.06,539.156 165.5,537.5C 161.833,537.5 158.167,537.5 154.5,537.5C 154.018,550.825 153.684,564.158 153.5,577.5C 153.539,579.952 154.206,581.952 155.5,583.5C 154.058,590.037 153.391,596.704 153.5,603.5C 153.833,607.5 154.167,611.5 154.5,615.5C 155.995,607.581 156.829,599.581 157,591.5C 157.171,599.677 157.671,607.677 158.5,615.5C 157.682,616.409 156.016,616.909 153.5,617C 155.167,617.333 156.833,617.667 158.5,618C 158.043,618.414 157.709,618.914 157.5,619.5C 161.107,620.489 164.774,620.823 168.5,620.5C 163.36,621.488 158.026,621.821 152.5,621.5C 151.336,593.003 151.17,564.336 152,535.5C 157.5,534.189 163,534.189 168.5,535.5 Z"/></g>
<g><path style="opacity:1" fill="#0257a0" d="M 165.5,537.5 C 165.627,539.915 165.793,542.249 166,544.5C 163.959,545.423 161.792,545.756 159.5,545.5C 162.15,551.579 162.15,557.745 159.5,564C 160.441,567.243 161.774,570.243 163.5,573C 161.253,575.416 161.087,577.916 163,580.5C 163.333,579.833 163.667,579.167 164,578.5C 164.595,579.899 164.428,581.232 163.5,582.5C 165.717,585.058 166.883,588.058 167,591.5C 167.5,599.159 167.666,606.826 167.5,614.5C 165.5,614.5 163.5,614.5 161.5,614.5C 161.5,615.833 161.5,617.167 161.5,618.5C 163.833,618.5 166.167,618.5 168.5,618.5C 168.5,619.167 168.5,619.833 168.5,620.5C 164.774,620.823 161.107,620.489 157.5,619.5C 157.709,618.914 158.043,618.414 158.5,618C 156.833,617.667 155.167,617.333 153.5,617C 156.016,616.909 157.682,616.409 158.5,615.5C 158.334,608.159 158.5,600.826 159,593.5C 161.294,599.202 162.128,605.202 161.5,611.5C 162.822,611.67 163.989,611.337 165,610.5C 165.667,605.5 165.667,600.5 165,595.5C 162.598,591.897 161.431,587.897 161.5,583.5C 160.5,583.5 159.5,583.5 158.5,583.5C 157.462,566.243 156.462,566.243 155.5,583.5C 154.206,581.952 153.539,579.952 153.5,577.5C 153.684,564.158 154.018,550.825 154.5,537.5C 158.167,537.5 161.833,537.5 165.5,537.5 Z"/></g>
<g><path style="opacity:1" fill="#0954a1" d="M 329.5,551.5 C 329.5,570.167 329.5,588.833 329.5,607.5C 328.153,608.028 326.819,608.195 325.5,608C 326.826,587.565 326.826,567.065 325.5,546.5C 324.833,546.833 324.167,547.167 323.5,547.5C 322.789,568.849 322.122,590.182 321.5,611.5C 323.604,611.201 325.604,611.534 327.5,612.5C 324.788,613.228 322.121,614.061 319.5,615C 322.167,616 322.167,617 319.5,618C 321.931,619.092 321.931,620.259 319.5,621.5C 318.5,621.5 317.5,621.5 316.5,621.5C 316.737,617.31 317.571,613.31 319,609.5C 319.333,588.167 319.667,566.833 320,545.5C 322.228,544.108 323.394,542.108 323.5,539.5C 324.978,539.238 326.311,539.571 327.5,540.5C 327.291,541.086 326.957,541.586 326.5,542C 328.019,545.051 329.019,548.218 329.5,551.5 Z"/></g>
<g><path style="opacity:1" fill="#04579b" d="M 433.5,538.5 C 434.762,541.505 435.762,544.505 436.5,547.5C 437.736,548.246 439.07,548.579 440.5,548.5C 440.83,554.868 440.496,561.202 439.5,567.5C 438.068,570.327 437.401,573.327 437.5,576.5C 436.127,576.343 434.793,576.51 433.5,577C 434.171,577.986 434.171,579.153 433.5,580.5C 429.92,579.923 426.92,580.923 424.5,583.5C 424.167,582.833 423.833,582.167 423.5,581.5C 424.917,579.291 426.084,576.957 427,574.5C 427.333,566.833 427.667,559.167 428,551.5C 428.5,550.5 429,549.5 429.5,548.5C 427.119,548.325 424.452,547.991 421.5,547.5C 420.5,547.5 419.5,547.5 418.5,547.5C 418.167,547.5 417.833,547.5 417.5,547.5C 416.801,554.37 416.134,561.37 415.5,568.5C 416.348,570.409 416.682,572.409 416.5,574.5C 424.972,574.761 425.305,575.927 417.5,578C 418.428,578.388 419.095,579.055 419.5,580C 418.956,581.585 418.289,583.085 417.5,584.5C 417.5,584.833 417.5,585.167 417.5,585.5C 416.505,596.988 416.172,608.655 416.5,620.5C 416.167,620.5 415.833,620.5 415.5,620.5C 413.031,619.683 410.365,619.183 407.5,619C 410.226,618.818 412.893,618.318 415.5,617.5C 412.215,616.676 408.882,616.176 405.5,616C 407.5,615.667 409.5,615.333 411.5,615C 410.207,614.51 408.873,614.343 407.5,614.5C 407.5,613.5 407.5,612.5 407.5,611.5C 410.167,611.5 412.833,611.5 415.5,611.5C 415.5,604.833 415.5,598.167 415.5,591.5C 414.5,591.5 413.5,591.5 412.5,591.5C 412.5,596.833 412.5,602.167 412.5,607.5C 411.5,607.5 410.5,607.5 409.5,607.5C 409.833,586.156 409.5,564.823 408.5,543.5C 406.31,542.252 405.977,540.586 407.5,538.5C 406.675,537.614 405.675,537.281 404.5,537.5C 404.545,540.077 403.545,542.077 401.5,543.5C 401.5,541.167 401.5,538.833 401.5,536.5C 412.249,536.14 422.915,536.806 433.5,538.5 Z"/></g>
<g><path style="opacity:1" fill="#1e598b" d="M 433.5,538.5 C 438.027,541.194 440.861,545.194 442,550.5C 443.149,558.707 442.482,566.707 440,574.5C 438.594,577.409 436.428,579.409 433.5,580.5C 434.171,579.153 434.171,577.986 433.5,577C 434.793,576.51 436.127,576.343 437.5,576.5C 437.401,573.327 438.068,570.327 439.5,567.5C 440.496,561.202 440.83,554.868 440.5,548.5C 439.07,548.579 437.736,548.246 436.5,547.5C 435.762,544.505 434.762,541.505 433.5,538.5 Z"/></g>
<g><path style="opacity:1" fill="#05559c" d="M 141.5,553.5 C 141.802,558.679 141.135,563.679 139.5,568.5C 135.5,568.5 131.5,568.5 127.5,568.5C 127.666,564.154 127.499,559.821 127,555.5C 126.79,553.942 126.29,552.609 125.5,551.5C 124.894,548.084 125.894,545.418 128.5,543.5C 129.495,548.792 129.828,554.125 129.5,559.5C 130.5,559.5 131.5,559.5 132.5,559.5C 133.094,554.154 133.761,548.82 134.5,543.5C 135.5,543.5 136.5,543.5 137.5,543.5C 138.262,549.214 138.262,554.88 137.5,560.5C 137.833,560.833 138.167,561.167 138.5,561.5C 139.515,558.724 140.515,556.057 141.5,553.5 Z"/></g>
<g><path style="opacity:1" fill="#0257a4" d="M 24.5,545.5 C 24.5,546.167 24.5,546.833 24.5,547.5C 24.6666,570.169 24.5,592.836 24,615.5C 23.3292,614.748 22.4959,614.414 21.5,614.5C 19.2341,614.141 17.4007,614.808 16,616.5C 15.5172,615.552 15.3505,614.552 15.5,613.5C 16.8021,611.972 18.4687,610.972 20.5,610.5C 21.4972,590.007 21.8305,569.34 21.5,548.5C 22.4972,548.53 23.1639,548.03 23.5,547C 22.548,545.7 22.548,544.533 23.5,543.5C 24.2975,543.957 24.6309,544.624 24.5,545.5 Z"/></g>
<g><path style="opacity:1" fill="#03579d" d="M 24.5,547.5 C 25.1667,569.004 25.8333,590.67 26.5,612.5C 27.1667,592.167 27.8333,571.833 28.5,551.5C 29.1667,570.662 29.8333,589.662 30.5,608.5C 30.5,609.5 30.5,610.5 30.5,611.5C 29.8386,612.718 29.1719,614.051 28.5,615.5C 27.3914,614.41 26.3914,614.41 25.5,615.5C 26.7287,616.281 28.062,616.781 29.5,617C 22.9266,617.528 22.9266,618.362 29.5,619.5C 24.8333,620.833 20.1667,620.833 15.5,619.5C 17.5,618.833 19.5,618.167 21.5,617.5C 20.2086,616.473 20.2086,615.473 21.5,614.5C 22.4959,614.414 23.3292,614.748 24,615.5C 24.5,592.836 24.6666,570.169 24.5,547.5 Z"/></g>
<g><path style="opacity:1" fill="#457a9e" d="M 43.5,547.5 C 39.7016,548.483 35.7016,548.817 31.5,548.5C 31.831,573.006 31.4976,597.339 30.5,621.5C 30.5,618.167 30.5,614.833 30.5,611.5C 30.5,610.5 30.5,609.5 30.5,608.5C 30.5,588.167 30.5,567.833 30.5,547.5C 34.8333,547.5 39.1667,547.5 43.5,547.5 Z"/></g>
<g><path style="opacity:1" fill="#08579d" d="M 67.5,547.5 C 66.3439,555.323 66.1772,563.323 67,571.5C 70.7896,572.136 74.6229,572.803 78.5,573.5C 78.9452,576.053 78.9452,578.72 78.5,581.5C 74.6707,580.931 71.3373,581.598 68.5,583.5C 68.5,592.5 68.5,601.5 68.5,610.5C 69.2625,611.268 70.2625,611.768 71.5,612C 75.8206,612.499 80.1539,612.666 84.5,612.5C 85.0916,615.127 85.4249,617.794 85.5,620.5C 82.1016,620.82 78.7683,620.487 75.5,619.5C 77.8422,618.329 80.1756,617.162 82.5,616C 76.1653,616.263 69.832,616.93 63.5,618C 65.2464,618.471 66.913,619.138 68.5,620C 63.1771,620.499 57.8437,620.666 52.5,620.5C 52.8301,602.659 52.4967,584.992 51.5,567.5C 51.3277,557.143 51.661,546.81 52.5,536.5C 63.1719,536.333 73.8385,536.5 84.5,537C 85.8333,539.667 85.8333,542.333 84.5,545C 79.0093,545.953 73.676,545.453 68.5,543.5C 67.8333,543.667 67.1667,543.833 66.5,544C 67.3366,545.011 67.67,546.178 67.5,547.5 Z"/></g>
<g><path style="opacity:1" fill="#23567d" d="M 345.5,543.5 C 344.522,548.2 343.355,552.867 342,557.5C 341.5,572.496 341.333,587.496 341.5,602.5C 340.339,586.672 340.172,570.672 341,554.5C 341.434,550.312 342.934,546.645 345.5,543.5 Z"/></g>
<g><path style="opacity:1" fill="#04569e" d="M 355.5,562.5 C 356.129,574.962 356.796,587.295 357.5,599.5C 357.335,602.518 357.502,605.518 358,608.5C 359.444,610.155 361.278,610.822 363.5,610.5C 359.702,611.483 355.702,611.817 351.5,611.5C 351.33,612.822 351.663,613.989 352.5,615C 351.351,616.744 350.017,616.911 348.5,615.5C 347.534,613.604 347.201,611.604 347.5,609.5C 349.492,609.672 351.158,609.005 352.5,607.5C 352.833,604.833 353.167,602.167 353.5,599.5C 352.88,588.506 352.38,577.506 352,566.5C 350.771,578.692 349.938,591.025 349.5,603.5C 349.167,604.833 348.833,606.167 348.5,607.5C 346.864,596.913 345.864,596.913 345.5,607.5C 344.5,607.5 343.5,607.5 342.5,607.5C 341.549,606.081 341.216,604.415 341.5,602.5C 341.333,587.496 341.5,572.496 342,557.5C 343.355,552.867 344.522,548.2 345.5,543.5C 347.638,543.297 349.305,542.297 350.5,540.5C 351.262,541.628 351.929,542.795 352.5,544C 351.167,544.333 349.833,544.667 348.5,545C 350.041,547.04 351.374,549.207 352.5,551.5C 353.095,555.408 354.095,559.074 355.5,562.5 Z"/></g>
<g><path style="opacity:1" fill="#396b93" d="M 359.5,550.5 C 358.895,553.127 358.395,555.793 358,558.5C 357.5,572.163 357.333,585.829 357.5,599.5C 356.796,587.295 356.129,574.962 355.5,562.5C 355.451,559.626 355.784,556.792 356.5,554C 356.715,552.092 357.715,550.926 359.5,550.5 Z"/></g>
<g><path style="opacity:1" fill="#315d86" d="M 125.5,551.5 C 126.29,552.609 126.79,553.942 127,555.5C 127.499,559.821 127.666,564.154 127.5,568.5C 131.5,568.5 135.5,568.5 139.5,568.5C 141.135,563.679 141.802,558.679 141.5,553.5C 141.5,552.833 141.5,552.167 141.5,551.5C 142.49,557.31 142.823,563.31 142.5,569.5C 136.833,569.5 131.167,569.5 125.5,569.5C 125.5,563.5 125.5,557.5 125.5,551.5 Z"/></g>
<g><path style="opacity:1" fill="#2f6391" d="M 168.5,535.5 C 169.495,546.988 169.828,558.655 169.5,570.5C 173.833,570.5 178.167,570.5 182.5,570.5C 177.684,572.177 172.517,573.177 167,573.5C 166.333,572.833 165.667,572.167 165,571.5C 166.483,567.789 167.483,563.789 168,559.5C 168.499,554.177 168.666,548.844 168.5,543.5C 168.5,540.833 168.5,538.167 168.5,535.5 Z"/></g>
<g><path style="opacity:1" fill="#255a84" d="M 247.5,563.5 C 252.193,567.861 256.859,572.195 261.5,576.5C 259.5,576.5 257.5,576.5 255.5,576.5C 255.5,575.167 255.5,573.833 255.5,572.5C 254.325,572.719 253.325,572.386 252.5,571.5C 251.459,569.415 249.959,567.748 248,566.5C 247.517,565.552 247.351,564.552 247.5,563.5 Z"/></g>
<g><path style="opacity:1" fill="#045699" d="M 190.5,535.5 C 193.33,535.963 195.997,536.629 198.5,537.5C 195.753,537.187 193.086,537.52 190.5,538.5C 191.689,539.429 193.022,539.762 194.5,539.5C 194.5,565.167 194.5,590.833 194.5,616.5C 190.833,616.5 187.167,616.5 183.5,616.5C 182.942,606.702 183.609,597.035 185.5,587.5C 185.246,585.583 184.246,584.249 182.5,583.5C 178.167,582.167 173.833,582.167 169.5,583.5C 168.505,594.988 168.172,606.655 168.5,618.5C 166.167,618.5 163.833,618.5 161.5,618.5C 161.5,617.167 161.5,615.833 161.5,614.5C 163.5,614.5 165.5,614.5 167.5,614.5C 167.666,606.826 167.5,599.159 167,591.5C 166.883,588.058 165.717,585.058 163.5,582.5C 164.428,581.232 164.595,579.899 164,578.5C 163.667,579.167 163.333,579.833 163,580.5C 161.087,577.916 161.253,575.416 163.5,573C 161.774,570.243 160.441,567.243 159.5,564C 162.15,557.745 162.15,551.579 159.5,545.5C 161.792,545.756 163.959,545.423 166,544.5C 165.793,542.249 165.627,539.915 165.5,537.5C 167.06,539.156 168.06,541.156 168.5,543.5C 168.666,548.844 168.499,554.177 168,559.5C 167.483,563.789 166.483,567.789 165,571.5C 165.667,572.167 166.333,572.833 167,573.5C 172.517,573.177 177.684,572.177 182.5,570.5C 183.627,569.878 184.627,569.045 185.5,568C 183.596,557.955 183.096,547.788 184,537.5C 186.277,536.883 188.444,536.216 190.5,535.5 Z"/></g>
<g><path style="opacity:1" fill="#2f6c95" d="M 300.5,570.5 C 304.5,570.5 308.5,570.5 312.5,570.5C 310.393,571.468 308.059,571.802 305.5,571.5C 305.785,573.288 305.452,574.955 304.5,576.5C 303.817,576.137 303.15,575.804 302.5,575.5C 302.107,573.716 301.441,572.05 300.5,570.5 Z"/></g>
<g><path style="opacity:1" fill="#06559d" d="M 115.5,535.5 C 115.119,536.931 114.119,537.764 112.5,538C 115.695,538.181 118.695,538.681 121.5,539.5C 117.445,539.176 113.445,539.509 109.5,540.5C 114.455,541.028 119.122,542.361 123.5,544.5C 121.993,545.739 120.826,545.405 120,543.5C 116.651,543.999 113.484,544.999 110.5,546.5C 109.435,550.784 108.602,555.117 108,559.5C 108.169,570.185 108.002,580.851 107.5,591.5C 106.187,579.134 106.187,566.801 107.5,554.5C 107,553.5 106.5,552.5 106,551.5C 105.418,554.668 104.418,555.001 103,552.5C 102.399,554.137 101.899,555.803 101.5,557.5C 102.915,570.123 104.249,582.79 105.5,595.5C 104.836,599.476 104.503,603.476 104.5,607.5C 103.5,607.5 102.5,607.5 101.5,607.5C 101.104,591.481 100.438,575.481 99.5,559.5C 98.448,559.351 97.448,559.517 96.5,560C 97.6564,574.425 97.8231,588.925 97,603.5C 96.6667,603.833 96.3333,604.167 96,604.5C 95.6667,591.167 95.3333,577.833 95,564.5C 94.8297,573.676 94.3297,582.676 93.5,591.5C 93.5,580.833 93.5,570.167 93.5,559.5C 95.1699,555.076 96.6699,550.41 98,545.5C 101.276,544.273 103.109,541.94 103.5,538.5C 105.144,538.286 106.644,538.62 108,539.5C 108.49,538.207 108.657,536.873 108.5,535.5C 110.833,535.5 113.167,535.5 115.5,535.5 Z"/></g>
<g><path style="opacity:1" fill="#04579b" d="M 299.5,535.5 C 299.172,547.345 299.505,559.012 300.5,570.5C 301.441,572.05 302.107,573.716 302.5,575.5C 303.183,577.176 304.517,577.843 306.5,577.5C 306.5,575.833 306.5,574.167 306.5,572.5C 308.167,572.5 309.833,572.5 311.5,572.5C 311.5,574.167 311.5,575.833 311.5,577.5C 313.144,577.714 314.644,577.38 316,576.5C 316.494,578.134 316.66,579.801 316.5,581.5C 312.489,581.356 308.489,581.023 304.5,580.5C 302.36,580.556 300.694,581.223 299.5,582.5C 299.5,582.833 299.5,583.167 299.5,583.5C 299.5,596.167 299.5,608.833 299.5,621.5C 294.203,620.725 288.87,620.392 283.5,620.5C 283.34,618.801 283.506,617.134 284,615.5C 284.903,616.701 286.069,617.535 287.5,618C 290.482,618.498 293.482,618.665 296.5,618.5C 296.67,617.178 296.337,616.011 295.5,615C 291.514,614.501 287.514,614.334 283.5,614.5C 283.5,588.5 283.5,562.5 283.5,536.5C 288.927,536.782 294.26,536.449 299.5,535.5 Z"/></g>
<g><path style="opacity:1" fill="#065892" d="M 315.5,536.5 C 319.97,535.514 324.637,535.181 329.5,535.5C 329.5,540.833 329.5,546.167 329.5,551.5C 329.019,548.218 328.019,545.051 326.5,542C 326.957,541.586 327.291,541.086 327.5,540.5C 326.311,539.571 324.978,539.238 323.5,539.5C 323.394,542.108 322.228,544.108 320,545.5C 319.667,566.833 319.333,588.167 319,609.5C 317.571,613.31 316.737,617.31 316.5,621.5C 315.209,621.737 314.209,621.404 313.5,620.5C 314.222,620.082 314.722,619.416 315,618.5C 315.803,612.165 316.637,605.832 317.5,599.5C 317.489,594.08 316.822,588.746 315.5,583.5C 314.83,585.291 314.163,586.958 313.5,588.5C 313.739,586.533 313.406,584.699 312.5,583C 308.179,582.501 303.846,582.334 299.5,582.5C 300.694,581.223 302.36,580.556 304.5,580.5C 308.489,581.023 312.489,581.356 316.5,581.5C 316.66,579.801 316.494,578.134 316,576.5C 314.644,577.38 313.144,577.714 311.5,577.5C 311.5,575.833 311.5,574.167 311.5,572.5C 309.833,572.5 308.167,572.5 306.5,572.5C 306.5,574.167 306.5,575.833 306.5,577.5C 304.517,577.843 303.183,577.176 302.5,575.5C 303.15,575.804 303.817,576.137 304.5,576.5C 305.452,574.955 305.785,573.288 305.5,571.5C 308.059,571.802 310.393,571.468 312.5,570.5C 313.404,569.791 313.737,568.791 313.5,567.5C 313.899,570.057 314.232,572.723 314.5,575.5C 316.062,572.037 316.895,568.37 317,564.5C 317.167,559.833 317.333,555.167 317.5,550.5C 317.493,545.449 316.827,540.783 315.5,536.5 Z"/></g>
<g><path style="opacity:1" fill="#1b5a92" d="M 417.5,547.5 C 417.5,555.833 417.5,564.167 417.5,572.5C 419.735,572.795 421.735,572.461 423.5,571.5C 424.504,570.317 425.338,568.984 426,567.5C 426.667,561.833 426.667,556.167 426,550.5C 424.591,549.219 423.091,548.219 421.5,547.5C 424.452,547.991 427.119,548.325 429.5,548.5C 429,549.5 428.5,550.5 428,551.5C 427.667,559.167 427.333,566.833 427,574.5C 426.084,576.957 424.917,579.291 423.5,581.5C 423.833,582.167 424.167,582.833 424.5,583.5C 426.92,580.923 429.92,579.923 433.5,580.5C 432.942,581.79 431.942,582.623 430.5,583C 426.914,584.108 423.247,584.608 419.5,584.5C 418.833,584.5 418.167,584.5 417.5,584.5C 418.289,583.085 418.956,581.585 419.5,580C 419.095,579.055 418.428,578.388 417.5,578C 425.305,575.927 424.972,574.761 416.5,574.5C 416.682,572.409 416.348,570.409 415.5,568.5C 416.134,561.37 416.801,554.37 417.5,547.5 Z"/></g>
<g><path style="opacity:1" fill="#a6c2d5" d="M 417.5,547.5 C 417.833,547.5 418.167,547.5 418.5,547.5C 418.5,555.5 418.5,563.5 418.5,571.5C 420.167,571.5 421.833,571.5 423.5,571.5C 421.735,572.461 419.735,572.795 417.5,572.5C 417.5,564.167 417.5,555.833 417.5,547.5 Z"/></g>
<g><path style="opacity:1" fill="#f7fafb" d="M 418.5,547.5 C 419.5,547.5 420.5,547.5 421.5,547.5C 423.091,548.219 424.591,549.219 426,550.5C 426.667,556.167 426.667,561.833 426,567.5C 425.338,568.984 424.504,570.317 423.5,571.5C 421.833,571.5 420.167,571.5 418.5,571.5C 418.5,563.5 418.5,555.5 418.5,547.5 Z"/></g>
<g><path style="opacity:1" fill="#3d6b90" d="M 68.5,570.5 C 72.8333,570.5 77.1667,570.5 81.5,570.5C 81.6655,574.514 81.4988,578.514 81,582.5C 76.9341,583.464 72.7675,583.797 68.5,583.5C 71.3373,581.598 74.6707,580.931 78.5,581.5C 80.1745,578.493 80.8412,575.16 80.5,571.5C 76.2984,571.817 72.2984,571.483 68.5,570.5 Z"/></g>
<g><path style="opacity:1" fill="#5b92b9" d="M 169.5,583.5 C 173.833,582.167 178.167,582.167 182.5,583.5C 182.5,584.167 182.5,584.833 182.5,585.5C 178.486,583.666 174.153,582.999 169.5,583.5 Z"/></g>
<g><path style="opacity:1" fill="#276187" d="M 110.5,554.5 C 110.225,571.195 110.559,587.861 111.5,604.5C 110.508,604.672 109.842,604.338 109.5,603.5C 109.17,586.991 109.504,570.658 110.5,554.5 Z"/></g>
<g><path style="opacity:1" fill="#025799" d="M 158.5,615.5 C 157.671,607.677 157.171,599.677 157,591.5C 156.829,599.581 155.995,607.581 154.5,615.5C 154.167,611.5 153.833,607.5 153.5,603.5C 153.391,596.704 154.058,590.037 155.5,583.5C 156.462,566.243 157.462,566.243 158.5,583.5C 159.5,583.5 160.5,583.5 161.5,583.5C 161.431,587.897 162.598,591.897 165,595.5C 165.667,600.5 165.667,605.5 165,610.5C 163.989,611.337 162.822,611.67 161.5,611.5C 162.128,605.202 161.294,599.202 159,593.5C 158.5,600.826 158.334,608.159 158.5,615.5 Z"/></g>
<g><path style="opacity:1" fill="#557fa3" d="M 169.5,583.5 C 169.5,596.5 169.5,609.5 169.5,622.5C 163.642,622.822 157.975,622.489 152.5,621.5C 158.026,621.821 163.36,621.488 168.5,620.5C 168.5,619.833 168.5,619.167 168.5,618.5C 168.172,606.655 168.505,594.988 169.5,583.5 Z"/></g>
<g><path style="opacity:1" fill="#135282" d="M 198.5,540.5 C 198.5,567.5 198.5,594.5 198.5,621.5C 193.167,621.5 187.833,621.5 182.5,621.5C 182.5,609.5 182.5,597.5 182.5,585.5C 182.5,584.833 182.5,584.167 182.5,583.5C 184.246,584.249 185.246,585.583 185.5,587.5C 183.609,597.035 182.942,606.702 183.5,616.5C 183.5,617.833 183.5,619.167 183.5,620.5C 188.167,620.5 192.833,620.5 197.5,620.5C 197.169,593.661 197.502,566.995 198.5,540.5 Z"/></g>
<g><path style="opacity:1" fill="#4a779c" d="M 299.5,583.5 C 299.5,583.167 299.5,582.833 299.5,582.5C 303.846,582.334 308.179,582.501 312.5,583C 313.406,584.699 313.739,586.533 313.5,588.5C 313.5,599.167 313.5,609.833 313.5,620.5C 314.209,621.404 315.209,621.737 316.5,621.5C 317.5,621.5 318.5,621.5 319.5,621.5C 322.833,621.5 326.167,621.5 329.5,621.5C 324.025,622.489 318.358,622.822 312.5,622.5C 312.667,610.162 312.5,597.829 312,585.5C 308.164,583.611 303.997,582.945 299.5,583.5 Z"/></g>
<g><path style="opacity:1" fill="#04549a" d="M 313.5,620.5 C 313.5,609.833 313.5,599.167 313.5,588.5C 314.163,586.958 314.83,585.291 315.5,583.5C 316.822,588.746 317.489,594.08 317.5,599.5C 316.637,605.832 315.803,612.165 315,618.5C 314.722,619.416 314.222,620.082 313.5,620.5 Z"/></g>
<g><path style="opacity:1" fill="#0256a0" d="M 389.5,593.5 C 388.883,593.611 388.383,593.944 388,594.5C 387.833,582.819 387.333,571.152 386.5,559.5C 385.749,560.376 385.249,561.376 385,562.5C 384.667,572.167 384.333,581.833 384,591.5C 381.8,593.615 379.8,595.949 378,598.5C 377.821,601.553 377.321,604.553 376.5,607.5C 375.438,605.978 374.771,604.312 374.5,602.5C 374.126,585.38 374.626,568.38 376,551.5C 375.667,551.833 375.333,552.167 375,552.5C 373.961,550.254 372.794,548.087 371.5,546C 369.671,545.727 368.171,544.893 367,543.5C 365.484,546.051 364.651,545.718 364.5,542.5C 368.182,542.665 371.848,542.499 375.5,542C 377.402,541.801 378.902,540.967 380,539.5C 382.46,540.755 383.627,542.755 383.5,545.5C 385.124,545.36 386.29,546.027 387,547.5C 389.262,562.737 390.096,578.07 389.5,593.5 Z"/></g>
<g><path style="opacity:1" fill="#005893" d="M 379.5,552.5 C 381.89,552.685 382.89,554.018 382.5,556.5C 380.808,568.103 380.141,579.769 380.5,591.5C 379.5,591.5 378.5,591.5 377.5,591.5C 377.209,578.44 377.876,565.44 379.5,552.5 Z"/></g>
<g><path style="opacity:1" fill="#3b6b96" d="M 417.5,585.5 C 417.5,597.5 417.5,609.5 417.5,621.5C 411.833,622.833 406.167,622.833 400.5,621.5C 406.026,621.821 411.36,621.488 416.5,620.5C 416.172,608.655 416.505,596.988 417.5,585.5 Z"/></g>
<g><path style="opacity:1" fill="#0356a0" d="M 141.5,602.5 C 139.906,599.939 138.906,596.939 138.5,593.5C 137.408,598.492 137.408,603.492 138.5,608.5C 137.07,608.579 135.736,608.246 134.5,607.5C 133.675,603.878 133.175,600.211 133,596.5C 130.355,595.292 129.188,596.292 129.5,599.5C 130.21,602.799 130.543,606.133 130.5,609.5C 128.784,609.629 127.117,609.962 125.5,610.5C 127.112,603.276 127.778,595.942 127.5,588.5C 132.167,588.5 136.833,588.5 141.5,588.5C 141.5,593.167 141.5,597.833 141.5,602.5 Z"/></g>
<g><path style="opacity:1" fill="#4f7892" d="M 239.5,595.5 C 241.265,594.539 243.265,594.205 245.5,594.5C 246.207,597.786 246.54,601.119 246.5,604.5C 246.167,604.5 245.833,604.5 245.5,604.5C 245.296,601.482 244.963,598.482 244.5,595.5C 242.833,595.5 241.167,595.5 239.5,595.5 Z"/></g>
<g><path style="opacity:1" fill="#06569e" d="M 270.5,587.5 C 272.293,589.426 273.293,591.759 273.5,594.5C 273.826,598.884 273.492,603.217 272.5,607.5C 271.682,604.893 271.182,602.226 271,599.5C 270.564,601.847 270.064,604.181 269.5,606.5C 269.919,607.672 270.585,608.672 271.5,609.5C 270.754,610.736 270.421,612.07 270.5,613.5C 268.585,613.216 266.919,613.549 265.5,614.5C 259.465,614.463 253.465,613.963 247.5,613C 251.674,612.833 255.507,611.667 259,609.5C 259.82,604.368 259.32,599.368 257.5,594.5C 259.098,592.017 258.598,590.017 256,588.5C 255.465,582.464 256.798,582.464 260,588.5C 259.617,591.452 260.117,594.452 261.5,597.5C 265.441,596.713 265.441,594.879 261.5,592C 263.979,589.33 266.979,587.83 270.5,587.5 Z"/></g>
<g><path style="opacity:1" fill="#0d5590" d="M 238.5,595.5 C 238.833,595.5 239.167,595.5 239.5,595.5C 241.167,595.5 242.833,595.5 244.5,595.5C 244.963,598.482 245.296,601.482 245.5,604.5C 244.259,606.931 243.092,606.931 242,604.5C 241.085,605.328 240.419,606.328 240,607.5C 238.644,606.62 237.144,606.286 235.5,606.5C 235.5,604.833 235.5,603.167 235.5,601.5C 237.451,601.773 238.951,601.107 240,599.5C 240.333,600.5 240.667,601.5 241,602.5C 242.269,601.095 242.769,599.429 242.5,597.5C 240.5,597.833 238.5,598.167 236.5,598.5C 236.389,597.883 236.056,597.383 235.5,597C 236.737,596.768 237.737,596.268 238.5,595.5 Z"/></g>
<g><path style="opacity:1" fill="#2e6186" d="M 238.5,595.5 C 237.737,596.268 236.737,596.768 235.5,597C 236.056,597.383 236.389,597.883 236.5,598.5C 234.801,598.34 233.134,598.506 231.5,599C 230.978,599.561 230.645,600.228 230.5,601C 231.71,604.151 232.71,606.984 233.5,609.5C 233.629,611.216 233.962,612.883 234.5,614.5C 230.064,609.466 228.064,603.466 228.5,596.5C 231.86,596.384 235.193,596.051 238.5,595.5 Z"/></g>
<g><path style="opacity:1" fill="#0358a2" d="M 245.5,604.5 C 245.318,606.591 245.652,608.591 246.5,610.5C 244.257,611.474 241.924,611.808 239.5,611.5C 239.5,610.5 239.5,609.5 239.5,608.5C 237.435,608.517 235.435,608.85 233.5,609.5C 232.71,606.984 231.71,604.151 230.5,601C 230.645,600.228 230.978,599.561 231.5,599C 233.134,598.506 234.801,598.34 236.5,598.5C 238.5,598.167 240.5,597.833 242.5,597.5C 242.769,599.429 242.269,601.095 241,602.5C 240.667,601.5 240.333,600.5 240,599.5C 238.951,601.107 237.451,601.773 235.5,601.5C 235.5,603.167 235.5,604.833 235.5,606.5C 237.144,606.286 238.644,606.62 240,607.5C 240.419,606.328 241.085,605.328 242,604.5C 243.092,606.931 244.259,606.931 245.5,604.5 Z"/></g>
<g><path style="opacity:1" fill="#225c8e" d="M 273.5,594.5 C 276.686,604.942 274.02,613.609 265.5,620.5C 265.67,619.178 265.337,618.011 264.5,617C 261.833,616.667 259.167,616.333 256.5,616C 259.695,615.819 262.695,615.319 265.5,614.5C 266.919,613.549 268.585,613.216 270.5,613.5C 270.421,612.07 270.754,610.736 271.5,609.5C 270.585,608.672 269.919,607.672 269.5,606.5C 270.064,604.181 270.564,601.847 271,599.5C 271.182,602.226 271.682,604.893 272.5,607.5C 273.492,603.217 273.826,598.884 273.5,594.5 Z"/></g>
<g><path style="opacity:1" fill="#0e5896" d="M 141.5,602.5 C 141.561,606.049 140.727,609.382 139,612.5C 138.34,614.324 137.173,615.657 135.5,616.5C 133.938,616.733 132.605,617.4 131.5,618.5C 131.5,617.5 131.5,616.5 131.5,615.5C 128.833,615.5 126.167,615.5 123.5,615.5C 123.5,614.167 123.5,612.833 123.5,611.5C 124.156,612.278 124.989,612.944 126,613.5C 126.5,613.167 127,612.833 127.5,612.5C 126.757,611.818 126.091,611.151 125.5,610.5C 127.117,609.962 128.784,609.629 130.5,609.5C 130.543,606.133 130.21,602.799 129.5,599.5C 129.188,596.292 130.355,595.292 133,596.5C 133.175,600.211 133.675,603.878 134.5,607.5C 135.736,608.246 137.07,608.579 138.5,608.5C 137.408,603.492 137.408,598.492 138.5,593.5C 138.906,596.939 139.906,599.939 141.5,602.5 Z"/></g>
<g><path style="opacity:1" fill="#2d5c84" d="M 111.5,621.5 C 111.5,621.833 111.5,622.167 111.5,622.5C 103.758,621.43 98.7579,617.097 96.5,609.5C 96.56,608.957 96.8933,608.624 97.5,608.5C 100.037,615.379 104.704,619.712 111.5,621.5 Z"/></g>
<g><path style="opacity:1" fill="#0356a1" d="M 415.5,620.5 C 410.786,620.827 406.12,620.493 401.5,619.5C 401.523,594.345 401.523,569.012 401.5,543.5C 403.545,542.077 404.545,540.077 404.5,537.5C 405.675,537.281 406.675,537.614 407.5,538.5C 405.977,540.586 406.31,542.252 408.5,543.5C 409.5,564.823 409.833,586.156 409.5,607.5C 410.5,607.5 411.5,607.5 412.5,607.5C 412.5,602.167 412.5,596.833 412.5,591.5C 413.5,591.5 414.5,591.5 415.5,591.5C 415.5,598.167 415.5,604.833 415.5,611.5C 412.833,611.5 410.167,611.5 407.5,611.5C 407.5,612.5 407.5,613.5 407.5,614.5C 408.873,614.343 410.207,614.51 411.5,615C 409.5,615.333 407.5,615.667 405.5,616C 408.882,616.176 412.215,616.676 415.5,617.5C 412.893,618.318 410.226,618.818 407.5,619C 410.365,619.183 413.031,619.683 415.5,620.5 Z"/></g>
<g><path style="opacity:1" fill="#045b91" d="M 403.5,543.5 C 404.832,553.812 405.499,564.478 405.5,575.5C 405.167,586.167 404.833,596.833 404.5,607.5C 403.5,586.177 403.167,564.844 403.5,543.5 Z"/></g>
<g><path style="opacity:1" fill="#255e90" d="M 141.5,602.5 C 141.5,597.833 141.5,593.167 141.5,588.5C 136.833,588.5 132.167,588.5 127.5,588.5C 127.778,595.942 127.112,603.276 125.5,610.5C 126.091,611.151 126.757,611.818 127.5,612.5C 127,612.833 126.5,613.167 126,613.5C 124.989,612.944 124.156,612.278 123.5,611.5C 122.167,611.5 120.833,611.5 119.5,611.5C 119.477,613.6 120.144,615.433 121.5,617C 120.618,618.917 119.285,619.917 117.5,620C 116.826,618.249 116.493,616.583 116.5,615C 117.308,614.692 117.975,614.192 118.5,613.5C 114.646,611.991 112.313,609.324 111.5,605.5C 114.805,611.19 118.972,611.856 124,607.5C 125.339,600.574 125.839,593.574 125.5,586.5C 131.167,586.5 136.833,586.5 142.5,586.5C 142.821,592.026 142.488,597.36 141.5,602.5 Z"/></g>
<g><path style="opacity:1" fill="#065795" d="M 329.5,607.5 C 329.5,612.167 329.5,616.833 329.5,621.5C 326.167,621.5 322.833,621.5 319.5,621.5C 321.931,620.259 321.931,619.092 319.5,618C 322.167,617 322.167,616 319.5,615C 322.121,614.061 324.788,613.228 327.5,612.5C 325.604,611.534 323.604,611.201 321.5,611.5C 322.122,590.182 322.789,568.849 323.5,547.5C 324.167,547.167 324.833,546.833 325.5,546.5C 326.826,567.065 326.826,587.565 325.5,608C 326.819,608.195 328.153,608.028 329.5,607.5 Z"/></g>
<g><path style="opacity:1" fill="#05559f" d="M 109.5,603.5 C 109.842,604.338 110.508,604.672 111.5,604.5C 111.5,604.833 111.5,605.167 111.5,605.5C 112.313,609.324 114.646,611.991 118.5,613.5C 117.975,614.192 117.308,614.692 116.5,615C 116.493,616.583 116.826,618.249 117.5,620C 119.285,619.917 120.618,618.917 121.5,617C 120.144,615.433 119.477,613.6 119.5,611.5C 120.833,611.5 122.167,611.5 123.5,611.5C 123.5,612.833 123.5,614.167 123.5,615.5C 126.167,615.5 128.833,615.5 131.5,615.5C 131.5,616.5 131.5,617.5 131.5,618.5C 130.317,619.504 128.984,620.338 127.5,621C 122.146,621.391 116.812,621.891 111.5,622.5C 111.5,622.167 111.5,621.833 111.5,621.5C 109.317,619.508 108.984,617.174 110.5,614.5C 109.675,613.614 108.675,613.281 107.5,613.5C 107.5,614.833 107.5,616.167 107.5,617.5C 105.058,617.646 104.391,616.813 105.5,615C 99.7347,610.28 100.401,608.78 107.5,610.5C 106.99,607.612 107.656,605.279 109.5,603.5 Z"/></g>
<g><path style="opacity:1" fill="#115896" d="M 261.5,576.5 C 265.605,579.27 268.605,582.937 270.5,587.5C 266.979,587.83 263.979,589.33 261.5,592C 265.441,594.879 265.441,596.713 261.5,597.5C 260.117,594.452 259.617,591.452 260,588.5C 256.798,582.464 255.465,582.464 256,588.5C 258.598,590.017 259.098,592.017 257.5,594.5C 259.32,599.368 259.82,604.368 259,609.5C 255.507,611.667 251.674,612.833 247.5,613C 253.465,613.963 259.465,614.463 265.5,614.5C 262.695,615.319 259.695,615.819 256.5,616C 259.167,616.333 261.833,616.667 264.5,617C 265.337,618.011 265.67,619.178 265.5,620.5C 255.951,624.933 246.618,624.433 237.5,619C 235.859,617.871 234.859,616.371 234.5,614.5C 233.962,612.883 233.629,611.216 233.5,609.5C 235.435,608.85 237.435,608.517 239.5,608.5C 239.5,609.5 239.5,610.5 239.5,611.5C 241.924,611.808 244.257,611.474 246.5,610.5C 245.652,608.591 245.318,606.591 245.5,604.5C 245.833,604.5 246.167,604.5 246.5,604.5C 248.206,610.434 251.706,611.767 257,608.5C 258.15,600.451 255.983,593.451 250.5,587.5C 252.103,587.688 253.437,587.188 254.5,586C 253.17,583.123 253.336,580.289 255,577.5C 256.356,578.38 257.856,578.714 259.5,578.5C 259.215,580.288 259.548,581.955 260.5,583.5C 261.086,583.291 261.586,582.957 262,582.5C 262.18,580.512 262.014,578.512 261.5,576.5 Z"/></g>
<g><path style="opacity:1" fill="#c4d9eb" d="M 417.5,584.5 C 418.167,584.5 418.833,584.5 419.5,584.5C 418.852,596.932 418.185,609.265 417.5,621.5C 417.5,609.5 417.5,597.5 417.5,585.5C 417.5,585.167 417.5,584.833 417.5,584.5 Z"/></g>
<g><path style="opacity:1" fill="#225d91" d="M 30.5,611.5 C 30.5,614.833 30.5,618.167 30.5,621.5C 25.3595,622.488 20.0262,622.821 14.5,622.5C 14.5,619.5 14.5,616.5 14.5,613.5C 14.8333,613.5 15.1667,613.5 15.5,613.5C 15.3505,614.552 15.5172,615.552 16,616.5C 17.4007,614.808 19.2341,614.141 21.5,614.5C 20.2086,615.473 20.2086,616.473 21.5,617.5C 19.5,618.167 17.5,618.833 15.5,619.5C 20.1667,620.833 24.8333,620.833 29.5,619.5C 22.9266,618.362 22.9266,617.528 29.5,617C 28.062,616.781 26.7287,616.281 25.5,615.5C 26.3914,614.41 27.3914,614.41 28.5,615.5C 29.1719,614.051 29.8386,612.718 30.5,611.5 Z"/></g>
<g><path style="opacity:1" fill="#0156a0" d="M 198.5,537.5 C 198.5,538.5 198.5,539.5 198.5,540.5C 197.502,566.995 197.169,593.661 197.5,620.5C 192.833,620.5 188.167,620.5 183.5,620.5C 183.5,619.167 183.5,617.833 183.5,616.5C 187.167,616.5 190.833,616.5 194.5,616.5C 194.5,590.833 194.5,565.167 194.5,539.5C 193.022,539.762 191.689,539.429 190.5,538.5C 193.086,537.52 195.753,537.187 198.5,537.5 Z"/></g>
<g><path style="opacity:1" fill="#0c5797" d="M 389.5,593.5 C 388.768,599.155 388.101,604.821 387.5,610.5C 384.691,617.801 379.357,621.967 371.5,623C 357.237,625.995 347.57,620.828 342.5,607.5C 343.5,607.5 344.5,607.5 345.5,607.5C 345.864,596.913 346.864,596.913 348.5,607.5C 348.833,606.167 349.167,604.833 349.5,603.5C 349.938,591.025 350.771,578.692 352,566.5C 352.38,577.506 352.88,588.506 353.5,599.5C 353.167,602.167 352.833,604.833 352.5,607.5C 351.158,609.005 349.492,609.672 347.5,609.5C 347.201,611.604 347.534,613.604 348.5,615.5C 350.017,616.911 351.351,616.744 352.5,615C 351.663,613.989 351.33,612.822 351.5,611.5C 355.702,611.817 359.702,611.483 363.5,610.5C 368.992,610.326 372.326,607.659 373.5,602.5C 373.833,602.5 374.167,602.5 374.5,602.5C 374.771,604.312 375.438,605.978 376.5,607.5C 377.321,604.553 377.821,601.553 378,598.5C 379.8,595.949 381.8,593.615 384,591.5C 384.333,581.833 384.667,572.167 385,562.5C 385.249,561.376 385.749,560.376 386.5,559.5C 387.333,571.152 387.833,582.819 388,594.5C 388.383,593.944 388.883,593.611 389.5,593.5 Z"/></g>
<g><path style="opacity:1" fill="#39698e" d="M 357.5,599.5 C 358.507,602.322 359.34,605.322 360,608.5C 361.302,609.085 362.469,609.751 363.5,610.5C 361.278,610.822 359.444,610.155 358,608.5C 357.502,605.518 357.335,602.518 357.5,599.5 Z"/></g>
<g><path style="opacity:1" fill="#266093" d="M 51.5,567.5 C 52.4967,584.992 52.8301,602.659 52.5,620.5C 57.8437,620.666 63.1771,620.499 68.5,620C 66.913,619.138 65.2464,618.471 63.5,618C 69.832,616.93 76.1653,616.263 82.5,616C 80.1756,617.162 77.8422,618.329 75.5,619.5C 78.7683,620.487 82.1016,620.82 85.5,620.5C 85.4249,617.794 85.0916,615.127 84.5,612.5C 80.1539,612.666 75.8206,612.499 71.5,612C 70.2625,611.768 69.2625,611.268 68.5,610.5C 74.8333,610.5 81.1667,610.5 87.5,610.5C 87.7935,614.437 87.4601,618.27 86.5,622C 74.6593,622.826 62.9927,622.659 51.5,621.5C 51.5,603.5 51.5,585.5 51.5,567.5 Z"/></g>
<g><path style="opacity:1" fill="#255b87" d="M 135.5,616.5 C 133.053,619.899 129.72,622.065 125.5,623C 120.648,623.815 115.981,623.648 111.5,622.5C 116.812,621.891 122.146,621.391 127.5,621C 128.984,620.338 130.317,619.504 131.5,618.5C 132.605,617.4 133.938,616.733 135.5,616.5 Z"/></g>
</svg>
