<?xml version="1.0" encoding="UTF-8"?>
<!DOCTYPE svg PUBLIC "-//W3C//DTD SVG 1.1//EN" "http://www.w3.org/Graphics/SVG/1.1/DTD/svg11.dtd">
<svg xmlns="http://www.w3.org/2000/svg" version="1.1" width="168px" height="149px" style="shape-rendering:geometricPrecision; text-rendering:geometricPrecision; image-rendering:optimizeQuality; fill-rule:evenodd; clip-rule:evenodd" xmlns:xlink="http://www.w3.org/1999/xlink">
<g><path style="opacity:0.892" fill="#5b4d9b" d="M 167.5,71.5 C 167.5,75.8333 167.5,80.1667 167.5,84.5C 161.284,120.382 140.284,141.716 104.5,148.5C 99.1667,148.5 93.8333,148.5 88.5,148.5C 68.9367,145.381 52.9367,136.048 40.5,120.5C 41.723,119.386 43.0563,119.219 44.5,120C 68.397,145.513 96.397,151.18 128.5,137C 157.312,118.859 168.145,93.026 161,59.5C 146.983,22.2306 120.149,6.73064 80.5,13C 73.8211,14.8392 67.4878,17.5059 61.5,21C 54.9954,26.0093 48.6621,31.176 42.5,36.5C 41.0683,36.2668 40.5683,35.6001 41,34.5C 63.9181,8.47845 91.7514,1.31178 124.5,13C 149.459,24.779 163.792,44.279 167.5,71.5 Z"/></g>
<g><path style="opacity:0.896" fill="#584b99" d="M 53.5,72.5 C 52.8333,72.5 52.5,72.8333 52.5,73.5C 50.3796,74.4033 50.0462,75.7367 51.5,77.5C 49.4203,81.0865 46.7537,84.2532 43.5,87C 42.6683,87.6877 42.0016,87.521 41.5,86.5C 42.2458,85.2638 42.5792,83.9305 42.5,82.5C 43.1667,82.5 43.5,82.1667 43.5,81.5C 44.8333,80.8333 44.8333,80.1667 43.5,79.5C 50.6096,67.8836 57.9429,56.3836 65.5,45C 66.3317,44.3123 66.9984,44.479 67.5,45.5C 62.5524,54.3964 57.8857,63.3964 53.5,72.5 Z"/></g>
<g><path style="opacity:0.867" fill="#584b99" d="M 97.5,74.5 C 96.8333,74.5 96.5,74.8333 96.5,75.5C 94.0673,76.5477 94.0673,77.2144 96.5,77.5C 94.4203,81.0865 91.7537,84.2532 88.5,87C 87.6683,87.6877 87.0016,87.521 86.5,86.5C 93.3375,71.4725 101.671,57.4725 111.5,44.5C 112.583,45.365 112.749,46.365 112,47.5C 106.633,56.2357 101.799,65.2357 97.5,74.5 Z"/></g>
<g><path style="opacity:0.318" fill="#918abd" d="M 30.5,54.5 C 28.1667,53.8333 25.8333,53.1667 23.5,52.5C 26.4475,52.7771 29.2809,52.4438 32,51.5C 32.5847,52.9976 32.0847,53.9976 30.5,54.5 Z"/></g>
<g><path style="opacity:0.337" fill="#8881b7" d="M 96.5,52.5 C 94.901,52.2322 93.5676,52.5655 92.5,53.5C 90.7085,53.366 89.0418,53.6993 87.5,54.5C 87.1583,53.6618 86.4916,53.3284 85.5,53.5C 89.0437,51.4309 92.7104,51.0976 96.5,52.5 Z"/></g>
<g><path style="opacity:0.919" fill="#4b3d91" d="M 96.5,52.5 C 97.403,55.0925 96.7364,57.4258 94.5,59.5C 93.8333,57.8333 93.1667,56.1667 92.5,54.5C 92.5,54.1667 92.5,53.8333 92.5,53.5C 93.5676,52.5655 94.901,52.2322 96.5,52.5 Z"/></g>
<g><path style="opacity:0.942" fill="#514495" d="M 85.5,53.5 C 86.4916,53.3284 87.1583,53.6618 87.5,54.5C 86.1914,55.624 85.5247,57.124 85.5,59C 86.1257,63.0039 87.2923,66.8372 89,70.5C 90.6135,77.2628 88.4468,82.2628 82.5,85.5C 81.8333,85.5 81.5,85.1667 81.5,84.5C 83.0525,82.058 84.0525,79.3913 84.5,76.5C 83.0632,71.357 81.7299,66.1903 80.5,61C 80.7815,57.5559 82.4482,55.0559 85.5,53.5 Z"/></g>
<g><path style="opacity:0.212" fill="#b8b3d4" d="M 92.5,54.5 C 93.1667,56.1667 93.8333,57.8333 94.5,59.5C 94.44,60.0431 94.1067,60.3764 93.5,60.5C 92.5344,58.604 92.2011,56.604 92.5,54.5 Z"/></g>
<g><path style="opacity:0.899" fill="#5b4d9b" d="M 23.5,52.5 C 25.8333,53.1667 28.1667,53.8333 30.5,54.5C 29.2233,55.8976 27.5566,56.5643 25.5,56.5C 22.0145,55.7536 18.5145,55.0869 15,54.5C 11.461,54.3498 8.96096,55.8498 7.5,59C 8.21063,60.2547 9.04396,61.4214 10,62.5C 12.888,59.2294 16.388,57.396 20.5,57C 12.1857,62.8125 6.85233,70.6459 4.5,80.5C 5.24585,81.7362 5.57918,83.0695 5.5,84.5C 7.65472,84.628 9.65472,84.128 11.5,83C 14.7828,79.603 17.4495,75.7697 19.5,71.5C 20.2508,72.376 20.7508,73.376 21,74.5C 24.2932,69.0399 29.1265,66.3732 35.5,66.5C 33.6156,72.8872 29.4489,77.2205 23,79.5C 22.51,80.7932 22.3433,82.1266 22.5,83.5C 23.1667,84.1667 23.8333,84.8333 24.5,85.5C 22.7986,87.4233 20.7986,87.7567 18.5,86.5C 17.5804,84.2143 17.5804,81.8809 18.5,79.5C 19.8478,78.4732 20.3478,77.1398 20,75.5C 18.9054,76.6934 18.072,78.0267 17.5,79.5C 13.9225,84.9244 8.92253,87.4244 2.5,87C 1.36362,85.8549 0.363622,84.6883 -0.5,83.5C -0.5,81.8333 -0.5,80.1667 -0.5,78.5C 1.06603,72.886 4.06603,68.0527 8.5,64C 5.12475,62.9705 3.95808,60.8039 5,57.5C 10.2405,52.4812 16.4071,50.8145 23.5,52.5 Z"/></g>
<g><path style="opacity:0.896" fill="#564898" d="M 127.5,86.5 C 126.508,86.6716 125.842,86.3382 125.5,85.5C 128.091,84.7457 129.924,83.079 131,80.5C 133.505,77.1806 134.505,73.514 134,69.5C 129.236,74.0351 125.736,79.3685 123.5,85.5C 122.833,86.1667 122.167,86.8333 121.5,87.5C 117.989,96.0218 113.322,103.855 107.5,111C 106.668,111.688 106.002,111.521 105.5,110.5C 112.256,97.3183 119.256,84.3183 126.5,71.5C 128.091,68.5691 130.091,65.9024 132.5,63.5C 133.242,65.1082 133.409,66.7749 133,68.5C 135.839,65.5914 138.006,65.9247 139.5,69.5C 138.14,74.5525 135.973,79.2192 133,83.5C 131.259,84.7577 129.426,85.7577 127.5,86.5 Z"/></g>
<g><path style="opacity:0.908" fill="#594b9a" d="M 58.5,79.5 C 57.8333,79.5 57.5,79.8333 57.5,80.5C 57.0618,80.4346 56.7284,80.6012 56.5,81C 57.4158,81.2784 58.0825,81.7784 58.5,82.5C 56.5187,84.3031 54.352,85.9697 52,87.5C 51.3076,86.9747 50.8076,86.3081 50.5,85.5C 52.5266,81.4469 54.5266,77.4469 56.5,73.5C 57.1667,73.5 57.5,73.1667 57.5,72.5C 57.9382,72.5654 58.2716,72.3988 58.5,72C 57.5842,71.7216 56.9175,71.2216 56.5,70.5C 57.9616,69.5423 59.2949,68.3756 60.5,67C 61.8333,66.3333 63.1667,66.3333 64.5,67C 62.6169,71.2648 60.6169,75.4315 58.5,79.5 Z"/></g>
<g><path style="opacity:0.9" fill="#584b99" d="M 126.5,71.5 C 122.972,76.0216 119.305,80.5216 115.5,85C 108.875,89.4316 105.708,87.9316 106,80.5C 103.362,83.3167 100.362,85.65 97,87.5C 96.3333,85.8333 96.3333,84.1667 97,82.5C 98.7611,79.5889 100.261,76.5889 101.5,73.5C 101.833,73.5 102.167,73.5 102.5,73.5C 103.757,72.3774 103.424,71.7107 101.5,71.5C 103.246,67.9594 105.912,66.6261 109.5,67.5C 107.547,71.9091 105.213,76.0758 102.5,80C 102.833,80.1667 103.167,80.3333 103.5,80.5C 107.275,76.4678 110.941,72.3011 114.5,68C 117.217,65.9238 120.217,65.2571 123.5,66C 124.833,67.3333 124.833,68.6667 123.5,70C 124.737,70.2321 125.737,70.7321 126.5,71.5 Z"/></g>
<g><path style="opacity:1" fill="#f2f1f7" d="M 118.5,67.5 C 119.5,67.5 120.5,67.5 121.5,67.5C 119.681,72.0458 117.848,76.7125 116,81.5C 114.429,83.9229 112.263,85.2562 109.5,85.5C 110.38,78.4065 113.38,72.4065 118.5,67.5 Z"/></g>
<g><path style="opacity:1" fill="#f0eff6" d="M 29.5,68.5 C 30.4386,71.964 29.1053,74.6307 25.5,76.5C 25.1667,76.1667 24.8333,75.8333 24.5,75.5C 25.8037,72.8699 27.4704,70.5366 29.5,68.5 Z"/></g>
<g><path style="opacity:1" fill="#f1f0f7" d="M 125.5,85.5 C 124.833,85.5 124.167,85.5 123.5,85.5C 125.736,79.3685 129.236,74.0351 134,69.5C 134.505,73.514 133.505,77.1806 131,80.5C 129.924,83.079 128.091,84.7457 125.5,85.5 Z"/></g>
<g><path style="opacity:0.918" fill="#574998" d="M 35.5,83.5 C 36.1667,84.1667 36.8333,84.8333 37.5,85.5C 32.8636,88.6779 30.5303,87.3446 30.5,81.5C 31.1667,81.5 31.5,81.1667 31.5,80.5C 32.8333,79.8333 32.8333,79.1667 31.5,78.5C 35.0316,71.2778 40.6982,67.2778 48.5,66.5C 48.3439,70.9665 46.3439,73.2998 42.5,73.5C 45.2555,68.0872 44.4222,67.4205 40,71.5C 37.6361,75.2186 36.1361,79.2186 35.5,83.5 Z"/></g>
<g><path style="opacity:0.592" fill="#a59dc9" d="M 56.5,70.5 C 56.9175,71.2216 57.5842,71.7216 58.5,72C 58.2716,72.3988 57.9382,72.5654 57.5,72.5C 56.8333,72.5 56.5,72.8333 56.5,73.5C 54.8333,74.8333 53.1667,76.1667 51.5,77.5C 50.0462,75.7367 50.3796,74.4033 52.5,73.5C 53.1667,73.5 53.5,73.1667 53.5,72.5C 54.5,71.8333 55.5,71.1667 56.5,70.5 Z"/></g>
<g><path style="opacity:0.122" fill="#968ec0" d="M 101.5,71.5 C 103.424,71.7107 103.757,72.3774 102.5,73.5C 102.167,72.1667 101.833,72.1667 101.5,73.5C 99.8333,74.8333 98.1667,76.1667 96.5,77.5C 94.0673,77.2144 94.0673,76.5477 96.5,75.5C 97.1667,75.5 97.5,75.1667 97.5,74.5C 98.8333,73.5 100.167,72.5 101.5,71.5 Z"/></g>
<g><path style="opacity:0.913" fill="#4f4294" d="M 75.5,85.5 C 74.4324,86.4345 73.099,86.7678 71.5,86.5C 69.0523,86.9153 67.7189,85.9153 67.5,83.5C 73.1603,68.6225 75.327,68.9558 74,84.5C 74.3826,85.056 74.8826,85.3893 75.5,85.5 Z"/></g>
<g><path style="opacity:0.592" fill="#9990c1" d="M 58.5,82.5 C 58.0825,81.7784 57.4158,81.2784 56.5,81C 56.7284,80.6012 57.0618,80.4346 57.5,80.5C 58.1667,80.5 58.5,80.1667 58.5,79.5C 60.8531,77.8987 63.0198,75.8987 65,73.5C 64.3014,77.3935 62.1347,80.3935 58.5,82.5 Z"/></g>
<g><path style="opacity:0.122" fill="#c9c6de" d="M 18.5,79.5 C 18.1667,79.5 17.8333,79.5 17.5,79.5C 18.072,78.0267 18.9054,76.6934 20,75.5C 20.3478,77.1398 19.8478,78.4732 18.5,79.5 Z"/></g>
<g><path style="opacity:0.137" fill="#9b94c3" d="M 43.5,79.5 C 44.8333,80.1667 44.8333,80.8333 43.5,81.5C 42.8333,81.5 42.5,81.8333 42.5,82.5C 40.6675,83.2485 39.0009,84.2485 37.5,85.5C 36.8333,84.8333 36.1667,84.1667 35.5,83.5C 38.7186,83.2241 41.3852,81.8907 43.5,79.5 Z"/></g>
<g><path style="opacity:0.592" fill="#8b83b9" d="M 31.5,78.5 C 32.8333,79.1667 32.8333,79.8333 31.5,80.5C 30.8333,80.5 30.5,80.8333 30.5,81.5C 28.7721,83.2255 26.7721,84.5589 24.5,85.5C 23.8333,84.8333 23.1667,84.1667 22.5,83.5C 26.2207,83.1089 29.2207,81.4422 31.5,78.5 Z"/></g>
<g><path style="opacity:0.494" fill="#837bb4" d="M 81.5,84.5 C 81.5,85.1667 81.8333,85.5 82.5,85.5C 78.9563,87.5691 75.2896,87.9024 71.5,86.5C 73.099,86.7678 74.4324,86.4345 75.5,85.5C 77.6208,85.6747 79.6208,85.3414 81.5,84.5 Z"/></g>
<g><path style="opacity:0.318" fill="#a6a1c9" d="M 123.5,85.5 C 124.167,85.5 124.833,85.5 125.5,85.5C 125.842,86.3382 126.508,86.6716 127.5,86.5C 125.735,87.4614 123.735,87.7947 121.5,87.5C 122.167,86.8333 122.833,86.1667 123.5,85.5 Z"/></g>
</svg>
