<svg width="14" height="14" viewBox="0 0 14 14" fill="none" xmlns="http://www.w3.org/2000/svg">
<g clip-path="url(#clip0_2142_5050)">
<path fill-rule="evenodd" clip-rule="evenodd" d="M3.0575 1.742L3.8215 1L4.6015 1.75L3.8255 2.491L3.0575 1.742ZM6.2875 4.222C6.2875 4.844 6.1275 5.333 5.8095 5.689C5.6085 5.91 5.3475 6.079 5.0265 6.194C4.67731 6.30919 4.31112 6.3643 3.9435 6.357H3.3885C2.9675 6.357 2.5875 6.283 2.2495 6.134C1.88435 5.98037 1.57168 5.72398 1.3495 5.396C1.11263 5.02352 0.991209 4.58931 1.0005 4.148C1.0005 4.089 1.0015 4.031 1.0045 3.972C1.0345 3.422 1.2085 2.814 1.5295 2.145L2.6245 2.629C2.3675 3.161 2.2275 3.629 2.2055 4.032C2.2035 4.072 2.2015 4.112 2.2015 4.152C2.2015 4.404 2.2565 4.61 2.3675 4.77C2.48683 4.94364 2.66408 5.06913 2.8675 5.124C2.9525 5.152 3.0455 5.172 3.1455 5.184C3.2245 5.194 3.3055 5.198 3.3885 5.198H3.9435C4.4015 5.198 4.7125 5.117 4.8765 4.954C5.0165 4.815 5.0865 4.571 5.0865 4.223V2.02H6.2865V4.222H6.2875ZM11.7205 7.406L11.0005 6.706L11.7095 6L12.4445 6.707L11.7205 7.406ZM8.8645 7.714C9.4065 7.714 9.8375 7.904 10.1575 8.283C10.4545 8.629 10.6025 9.06 10.6025 9.576V9.94H10.7825V9.936H11.1925C11.4135 9.936 11.5695 9.908 11.6595 9.852C11.7525 9.797 11.7995 9.712 11.7995 9.594V9.525C11.8035 9.282 11.8165 8.481 11.7995 8.41L13.0005 8.05V9.624C13.0035 9.93559 12.9025 10.2393 12.7135 10.487C12.4075 10.892 11.9095 11.094 11.2185 11.094H10.5915C10.5305 11.827 10.1575 12.351 9.4745 12.667C9.2075 12.789 8.8945 12.877 8.5375 12.932C8.23505 12.9782 7.92945 13.0006 7.6235 12.999V11.84C8.2355 11.84 8.6955 11.758 9.0035 11.593C9.2535 11.461 9.3795 11.295 9.3795 11.094H8.8645C8.4285 11.094 8.0575 10.981 7.7515 10.755C7.3845 10.482 7.2015 10.088 7.2015 9.575C7.2015 9.087 7.3235 8.674 7.5685 8.335C7.8645 7.92 8.2965 7.713 8.8645 7.713V7.714ZM9.3975 9.94V9.576C9.3975 9.359 9.3495 9.187 9.2545 9.06C9.20956 8.9995 9.15057 8.95086 9.08262 8.91828C9.01467 8.8857 8.9398 8.87016 8.8645 8.873C8.78836 8.87036 8.7127 8.88595 8.64382 8.91848C8.57494 8.95101 8.51483 8.99953 8.4685 9.06C8.37323 9.18975 8.32524 9.3482 8.3325 9.509C8.33234 9.53137 8.33334 9.55373 8.3355 9.576C8.3435 9.701 8.4015 9.796 8.5125 9.859C8.6055 9.913 8.7225 9.939 8.8645 9.939L9.3975 9.94ZM9.5005 6.707L10.2205 7.407L10.9445 6.707L10.2095 6L9.5005 6.707ZM2.8065 11.595H2.8365C3.2695 11.585 3.5815 11.489 3.7735 11.305C3.7975 11.317 3.8385 11.34 3.8935 11.373L3.9675 11.412L4.0485 11.454C4.1835 11.527 4.3095 11.587 4.4275 11.634C4.7725 11.78 5.0975 11.854 5.4045 11.854C5.56476 11.8575 5.72414 11.8292 5.87344 11.7709C6.02275 11.7125 6.15905 11.6252 6.2745 11.514C6.5745 11.229 6.7235 10.8 6.7235 10.228C6.71994 9.82269 6.60397 9.42631 6.3885 9.083C6.0895 8.626 5.6565 8.398 5.0885 8.398C4.5865 8.398 4.1725 8.59 3.8465 8.973C3.7335 9.105 3.6365 9.257 3.5525 9.429C3.5205 9.491 3.4925 9.554 3.4685 9.62C3.45635 9.64512 3.44632 9.67121 3.4385 9.698C3.43078 9.71786 3.42345 9.73786 3.4165 9.758C3.3135 10.067 3.2455 10.243 3.2115 10.288C3.1395 10.378 2.9975 10.428 2.7845 10.435C2.6615 10.43 2.5755 10.405 2.5285 10.359C2.4715 10.305 2.4435 10.206 2.4435 10.062V7L1.2425 6.5V10.062C1.2425 10.323 1.2905 10.558 1.3855 10.765C1.4565 10.923 1.5535 11.061 1.6755 11.178C1.7985 11.296 1.9415 11.389 2.1055 11.458C2.3035 11.542 2.5255 11.588 2.7705 11.594V11.595H2.8065ZM5.5585 10.581C5.60023 10.4683 5.61529 10.3475 5.6025 10.228C5.5946 10.0586 5.53723 9.89518 5.4375 9.758C5.3375 9.624 5.2205 9.557 5.0875 9.557C4.9075 9.557 4.7575 9.66 4.6405 9.867C4.5985 9.938 4.5605 10.025 4.5265 10.129C4.51213 10.1686 4.49879 10.2087 4.4865 10.249L4.4715 10.302L4.4565 10.348C4.5985 10.466 4.7795 10.564 5.0005 10.641C5.1805 10.703 5.3255 10.733 5.4335 10.733C5.4775 10.733 5.5195 10.683 5.5585 10.581Z" fill="black"/>
</g>
<defs>
<clipPath id="clip0_2142_5050">
<rect width="14" height="14" fill="white"/>
</clipPath>
</defs>
</svg>
